<?xml version="1.0" encoding="UTF-8"?>
<svg width="24" height="24" viewBox="0 0 24 24" fill="none" xmlns="http://www.w3.org/2000/svg">
    <path d="M17.21 9L12.83 2.44C12.64 2.17 12.32 2 12 2C11.68 2 11.36 2.17 11.17 2.44L6.79 9H2C1.45 9 1 9.45 1 10C1 10.09 1.01 10.18 1.04 10.27L3.58 19.54C3.81 20.38 4.58 21 5.5 21H18.5C19.42 21 20.19 20.38 20.43 19.54L22.97 10.27L23 10C23 9.45 22.55 9 22 9H17.21ZM12 4.6L14.6 8H9.4L12 4.6ZM18.5 19L5.5 19L3.31 11H20.7L18.5 19ZM12 13C10.9 13 10 13.9 10 15C10 16.1 10.9 17 12 17C13.1 17 14 16.1 14 15C14 13.9 13.1 13 12 13Z" fill="currentColor"/>
</svg>
