<svg xmlns="http://www.w3.org/2000/svg" xmlns:xlink="http://www.w3.org/1999/xlink" viewBox="0 0 512 512" width="512" height="512" preserveAspectRatio="xMidYMid meet" style="width: 100%; height: 100%; transform: translate3d(0px, 0px, 0px); content-visibility: visible;"><defs><clipPath id="__lottie_element_553"><rect width="512" height="512" x="0" y="0"/></clipPath><clipPath id="__lottie_element_558"><path d="M0,0 L512,0 L512,512 L0,512z"/></clipPath><radialGradient id="__lottie_element_566" spreadMethod="pad" gradientUnits="userSpaceOnUse" cx="-1.315999984741211" cy="60.42900085449219" r="121.01299858093262" fx="-1.315999984741211" fy="60.42900085449219"><stop offset="30%" stop-color="rgb(186,128,40)"/><stop offset="82%" stop-color="rgb(146,96,31)"/><stop offset="100%" stop-color="rgb(106,63,22)"/></radialGradient><linearGradient id="__lottie_element_567" spreadMethod="pad" gradientUnits="userSpaceOnUse" x1="-1.315999984741211" y1="81.42900085449219" x2="-1.315999984741211" y2="182.64100646972656"><stop offset="0%" stop-color="rgb(92,53,17)" stop-opacity="0"/><stop offset="50%" stop-color="rgb(92,53,17)" stop-opacity="0.5"/><stop offset="100%" stop-color="rgb(92,53,17)" stop-opacity="1"/></linearGradient><radialGradient id="__lottie_element_568" spreadMethod="pad" gradientUnits="userSpaceOnUse" cx="4.684999942779541" cy="74.42900085449219" r="72.70300054550171" fx="4.684999942779541" fy="74.42900085449219"><stop offset="36%" stop-color="rgb(230,181,109)"/><stop offset="80%" stop-color="rgb(183,139,78)"/><stop offset="100%" stop-color="rgb(135,97,46)"/></radialGradient><radialGradient id="__lottie_element_569" spreadMethod="pad" gradientUnits="userSpaceOnUse" cx="17.68400001525879" cy="-20.570999145507812" r="75.20765067463806" fx="17.68400001525879" fy="-20.570999145507812"><stop offset="39%" stop-color="rgb(80,45,13)" stop-opacity="1"/><stop offset="81%" stop-color="rgb(80,45,13)" stop-opacity="0.5"/><stop offset="100%" stop-color="rgb(80,45,13)" stop-opacity="0"/></radialGradient><linearGradient id="__lottie_element_572" spreadMethod="pad" gradientUnits="userSpaceOnUse" x1="170.13323974609375" y1="46.798179626464844" x2="105.31238555908203" y2="91.78514862060547"><stop offset="0%" stop-color="rgb(198,143,63)"/><stop offset="25%" stop-color="rgb(182,126,54)"/><stop offset="51%" stop-color="rgb(166,110,44)"/><stop offset="63%" stop-color="rgb(151,97,39)"/><stop offset="75%" stop-color="rgb(136,85,34)"/><stop offset="88%" stop-color="rgb(119,72,28)"/><stop offset="100%" stop-color="rgb(101,59,21)"/></linearGradient><linearGradient id="__lottie_element_573" spreadMethod="pad" gradientUnits="userSpaceOnUse" x1="117.68499755859375" y1="121.42900085449219" x2="122.99700164794922" y2="12.529999732971191"><stop offset="0%" stop-color="rgb(255,237,162)" stop-opacity="1"/><stop offset="50%" stop-color="rgb(255,237,162)" stop-opacity="0.5"/><stop offset="100%" stop-color="rgb(255,237,162)" stop-opacity="0"/></linearGradient><linearGradient id="__lottie_element_574" spreadMethod="pad" gradientUnits="userSpaceOnUse" x1="150.0428466796875" y1="59.735164642333984" x2="90.5354232788086" y2="119.8490982055664"><stop offset="0%" stop-color="rgb(101,59,21)" stop-opacity="0"/><stop offset="50%" stop-color="rgb(101,59,21)" stop-opacity="0.5"/><stop offset="100%" stop-color="rgb(101,59,21)" stop-opacity="1"/></linearGradient><linearGradient id="__lottie_element_580" spreadMethod="pad" gradientUnits="userSpaceOnUse" x1="16.93400001525879" y1="-100.07099914550781" x2="16.68400001525879" y2="10.331999778747559"><stop offset="0%" stop-color="rgb(198,143,63)"/><stop offset="25%" stop-color="rgb(182,126,54)"/><stop offset="51%" stop-color="rgb(166,110,44)"/><stop offset="63%" stop-color="rgb(151,97,39)"/><stop offset="75%" stop-color="rgb(136,85,34)"/><stop offset="88%" stop-color="rgb(119,72,28)"/><stop offset="100%" stop-color="rgb(101,59,21)"/></linearGradient><linearGradient id="__lottie_element_581" spreadMethod="pad" gradientUnits="userSpaceOnUse" x1="20.68400001525879" y1="-146.0709991455078" x2="13.430000305175781" y2="-23.347999572753906"><stop offset="0%" stop-color="rgb(207,158,85)" stop-opacity="1"/><stop offset="50%" stop-color="rgb(207,158,85)" stop-opacity="0.5"/><stop offset="100%" stop-color="rgb(207,158,85)" stop-opacity="0"/></linearGradient><linearGradient id="__lottie_element_582" spreadMethod="pad" gradientUnits="userSpaceOnUse" x1="25.68400001525879" y1="-183.5709991455078" x2="21.663999557495117" y2="-95.05899810791016"><stop offset="0%" stop-color="rgb(255,237,162)" stop-opacity="1"/><stop offset="50%" stop-color="rgb(255,237,162)" stop-opacity="0.5"/><stop offset="100%" stop-color="rgb(255,237,162)" stop-opacity="0"/></linearGradient><linearGradient id="__lottie_element_585" spreadMethod="pad" gradientUnits="userSpaceOnUse" x1="97.68499755859375" y1="-215.5709991455078" x2="108.42900085449219" y2="-71.06300354003906"><stop offset="0%" stop-color="rgb(211,160,85)"/><stop offset="47%" stop-color="rgb(172,121,57)"/><stop offset="100%" stop-color="rgb(132,82,30)"/></linearGradient><linearGradient id="__lottie_element_586" spreadMethod="pad" gradientUnits="userSpaceOnUse" x1="89.68499755859375" y1="-133.5709991455078" x2="105.47699737548828" y2="-204.9530029296875"><stop offset="0%" stop-color="rgb(255,237,162)" stop-opacity="1"/><stop offset="50%" stop-color="rgb(255,237,162)" stop-opacity="0.5"/><stop offset="100%" stop-color="rgb(255,237,162)" stop-opacity="0"/></linearGradient><linearGradient id="__lottie_element_587" spreadMethod="pad" gradientUnits="userSpaceOnUse" x1="99.68499755859375" y1="-152.5709991455078" x2="103.70700073242188" y2="-193.79800415039062"><stop offset="40%" stop-color="rgb(222,179,114)"/><stop offset="74%" stop-color="rgb(176,133,72)"/><stop offset="100%" stop-color="rgb(130,87,31)"/></linearGradient><linearGradient id="__lottie_element_591" spreadMethod="pad" gradientUnits="userSpaceOnUse" x1="-15.315999984741211" y1="-222.5709991455078" x2="-96.97100067138672" y2="-95.79100036621094"><stop offset="0%" stop-color="rgb(211,160,85)"/><stop offset="47%" stop-color="rgb(171,121,57)"/><stop offset="100%" stop-color="rgb(132,82,30)"/></linearGradient><linearGradient id="__lottie_element_592" spreadMethod="pad" gradientUnits="userSpaceOnUse" x1="-43.314998626708984" y1="-156.5709991455078" x2="-40.18000030517578" y2="-220.85400390625"><stop offset="0%" stop-color="rgb(255,237,162)" stop-opacity="1"/><stop offset="50%" stop-color="rgb(255,237,162)" stop-opacity="0.5"/><stop offset="100%" stop-color="rgb(255,237,162)" stop-opacity="0"/></linearGradient><linearGradient id="__lottie_element_593" spreadMethod="pad" gradientUnits="userSpaceOnUse" x1="-44.314998626708984" y1="-166.5709991455078" x2="-40.292999267578125" y2="-207.79800415039062"><stop offset="40%" stop-color="rgb(222,179,114)"/><stop offset="74%" stop-color="rgb(176,133,72)"/><stop offset="100%" stop-color="rgb(130,87,31)"/></linearGradient><linearGradient id="__lottie_element_597" spreadMethod="pad" gradientUnits="userSpaceOnUse" x1="-49.52574920654297" y1="22.136016845703125" x2="-86.27626037597656" y2="122.31712341308594"><stop offset="0%" stop-color="rgb(198,143,63)"/><stop offset="25%" stop-color="rgb(182,126,54)"/><stop offset="51%" stop-color="rgb(166,110,44)"/><stop offset="63%" stop-color="rgb(151,97,39)"/><stop offset="75%" stop-color="rgb(136,85,34)"/><stop offset="88%" stop-color="rgb(119,72,28)"/><stop offset="100%" stop-color="rgb(101,59,21)"/></linearGradient><linearGradient id="__lottie_element_598" spreadMethod="pad" gradientUnits="userSpaceOnUse" x1="-158.3159942626953" y1="33.42900085449219" x2="-44.654998779296875" y2="79.03800201416016"><stop offset="0%" stop-color="rgb(101,59,21)" stop-opacity="0"/><stop offset="50%" stop-color="rgb(101,59,21)" stop-opacity="0.5"/><stop offset="100%" stop-color="rgb(101,59,21)" stop-opacity="1"/></linearGradient><linearGradient id="__lottie_element_599" spreadMethod="pad" gradientUnits="userSpaceOnUse" x1="-137.3159942626953" y1="108.42900085449219" x2="-132.0030059814453" y2="-0.4699999988079071"><stop offset="0%" stop-color="rgb(255,237,162)" stop-opacity="1"/><stop offset="50%" stop-color="rgb(255,237,162)" stop-opacity="0.5"/><stop offset="100%" stop-color="rgb(255,237,162)" stop-opacity="0"/></linearGradient><linearGradient id="__lottie_element_605" spreadMethod="pad" gradientUnits="userSpaceOnUse" x1="15.684000015258789" y1="-63.57099914550781" x2="11.597000122070312" y2="6.735000133514404"><stop offset="5%" stop-color="rgb(233,200,144)"/><stop offset="70%" stop-color="rgb(202,166,107)"/><stop offset="100%" stop-color="rgb(172,132,69)"/></linearGradient><linearGradient id="__lottie_element_606" spreadMethod="pad" gradientUnits="userSpaceOnUse" x1="10.925999641418457" y1="15.251999855041504" x2="12.109999656677246" y2="-14"><stop offset="0%" stop-color="rgb(255,79,79)"/><stop offset="50%" stop-color="rgb(188,55,55)"/><stop offset="100%" stop-color="rgb(122,32,32)"/></linearGradient><linearGradient id="__lottie_element_607" spreadMethod="pad" gradientUnits="userSpaceOnUse" x1="15.684000015258789" y1="-56.57099914550781" x2="14.322999954223633" y2="-37.5099983215332"><stop offset="0%" stop-color="rgb(16,20,28)"/><stop offset="45%" stop-color="rgb(37,37,35)"/><stop offset="90%" stop-color="rgb(59,54,43)"/></linearGradient><linearGradient id="__lottie_element_608" spreadMethod="pad" gradientUnits="userSpaceOnUse" x1="16.68400001525879" y1="-56.57099914550781" x2="15.91100025177002" y2="-48.25699996948242"><stop offset="0%" stop-color="rgb(198,183,130)" stop-opacity="1"/><stop offset="50%" stop-color="rgb(198,183,130)" stop-opacity="0.5"/><stop offset="100%" stop-color="rgb(198,183,130)" stop-opacity="0"/></linearGradient><linearGradient id="__lottie_element_611" spreadMethod="pad" gradientUnits="userSpaceOnUse" x1="59.685001373291016" y1="-54.57099914550781" x2="60.310001373291016" y2="-64.98899841308594"><stop offset="0%" stop-color="rgb(96,72,40)" stop-opacity="1"/><stop offset="50%" stop-color="rgb(96,72,40)" stop-opacity="0.5"/><stop offset="100%" stop-color="rgb(96,72,40)" stop-opacity="0"/></linearGradient><linearGradient id="__lottie_element_612" spreadMethod="pad" gradientUnits="userSpaceOnUse" x1="61.685001373291016" y1="-76.57099914550781" x2="60.55099868774414" y2="-67.2239990234375"><stop offset="10%" stop-color="rgb(255,255,255)" stop-opacity="1"/><stop offset="45%" stop-color="rgb(255,255,255)" stop-opacity="0.5"/><stop offset="80%" stop-color="rgb(255,255,255)" stop-opacity="0"/></linearGradient><linearGradient id="__lottie_element_613" spreadMethod="pad" gradientUnits="userSpaceOnUse" x1="-24.31599998474121" y1="-63.57099914550781" x2="-24.517000198364258" y2="-72.85700225830078"><stop offset="0%" stop-color="rgb(96,72,40)" stop-opacity="1"/><stop offset="50%" stop-color="rgb(96,72,40)" stop-opacity="0.5"/><stop offset="100%" stop-color="rgb(96,72,40)" stop-opacity="0"/></linearGradient><linearGradient id="__lottie_element_614" spreadMethod="pad" gradientUnits="userSpaceOnUse" x1="-22.31599998474121" y1="-86.57099914550781" x2="-23.448999404907227" y2="-77.2239990234375"><stop offset="10%" stop-color="rgb(255,255,255)" stop-opacity="1"/><stop offset="45%" stop-color="rgb(255,255,255)" stop-opacity="0.5"/><stop offset="80%" stop-color="rgb(255,255,255)" stop-opacity="0"/></linearGradient><linearGradient id="__lottie_element_618" spreadMethod="pad" gradientUnits="userSpaceOnUse" x1="133.6840057373047" y1="99.42900085449219" x2="133.6840057373047" y2="197.4250030517578"><stop offset="0%" stop-color="rgb(198,143,63)"/><stop offset="22%" stop-color="rgb(182,126,54)"/><stop offset="53%" stop-color="rgb(166,110,44)"/><stop offset="67%" stop-color="rgb(151,97,39)"/><stop offset="80%" stop-color="rgb(136,85,34)"/><stop offset="90%" stop-color="rgb(119,72,28)"/><stop offset="100%" stop-color="rgb(101,59,21)"/></linearGradient><linearGradient id="__lottie_element_619" spreadMethod="pad" gradientUnits="userSpaceOnUse" x1="132.6840057373047" y1="131.4290008544922" x2="127.63899993896484" y2="202.0590057373047"><stop offset="28%" stop-color="rgb(101,59,21)" stop-opacity="0"/><stop offset="64%" stop-color="rgb(101,59,21)" stop-opacity="0.5"/><stop offset="100%" stop-color="rgb(101,59,21)" stop-opacity="1"/></linearGradient><radialGradient id="__lottie_element_623" spreadMethod="pad" gradientUnits="userSpaceOnUse" cx="190.6840057373047" cy="157.4290008544922" r="9.544998168945312" fx="190.6840057373047" fy="157.4290008544922"><stop offset="0%" stop-color="rgb(55,50,40)" stop-opacity="1"/><stop offset="64%" stop-color="rgb(55,50,40)" stop-opacity="0.5"/><stop offset="100%" stop-color="rgb(55,50,40)" stop-opacity="0"/></radialGradient><radialGradient id="__lottie_element_624" spreadMethod="pad" gradientUnits="userSpaceOnUse" cx="176.6840057373047" cy="134.4290008544922" r="10.75" fx="176.6840057373047" fy="134.4290008544922"><stop offset="0%" stop-color="rgb(55,50,40)" stop-opacity="1"/><stop offset="64%" stop-color="rgb(55,50,40)" stop-opacity="0.5"/><stop offset="100%" stop-color="rgb(55,50,40)" stop-opacity="0"/></radialGradient><radialGradient id="__lottie_element_625" spreadMethod="pad" gradientUnits="userSpaceOnUse" cx="149.6840057373047" cy="129.4290008544922" r="9.638992309570312" fx="149.6840057373047" fy="129.4290008544922"><stop offset="0%" stop-color="rgb(55,50,40)" stop-opacity="1"/><stop offset="64%" stop-color="rgb(55,50,40)" stop-opacity="0.5"/><stop offset="100%" stop-color="rgb(55,50,40)" stop-opacity="0"/></radialGradient><radialGradient id="__lottie_element_626" spreadMethod="pad" gradientUnits="userSpaceOnUse" cx="147.6840057373047" cy="164.4290008544922" r="10.625364522431038" fx="147.6840057373047" fy="164.4290008544922"><stop offset="0%" stop-color="rgb(55,50,40)" stop-opacity="1"/><stop offset="64%" stop-color="rgb(55,50,40)" stop-opacity="0.5"/><stop offset="100%" stop-color="rgb(55,50,40)" stop-opacity="0"/></radialGradient><linearGradient id="__lottie_element_630" spreadMethod="pad" gradientUnits="userSpaceOnUse" x1="133.6840057373047" y1="99.42900085449219" x2="133.6840057373047" y2="197.4250030517578"><stop offset="0%" stop-color="rgb(198,143,63)"/><stop offset="22%" stop-color="rgb(182,126,54)"/><stop offset="53%" stop-color="rgb(166,110,44)"/><stop offset="67%" stop-color="rgb(151,97,39)"/><stop offset="80%" stop-color="rgb(136,85,34)"/><stop offset="90%" stop-color="rgb(119,72,28)"/><stop offset="100%" stop-color="rgb(101,59,21)"/></linearGradient><linearGradient id="__lottie_element_631" spreadMethod="pad" gradientUnits="userSpaceOnUse" x1="132.6840057373047" y1="131.4290008544922" x2="127.63899993896484" y2="202.0590057373047"><stop offset="28%" stop-color="rgb(101,59,21)" stop-opacity="0"/><stop offset="64%" stop-color="rgb(101,59,21)" stop-opacity="0.5"/><stop offset="100%" stop-color="rgb(101,59,21)" stop-opacity="1"/></linearGradient><radialGradient id="__lottie_element_635" spreadMethod="pad" gradientUnits="userSpaceOnUse" cx="190.6840057373047" cy="157.4290008544922" r="9.544998168945312" fx="190.6840057373047" fy="157.4290008544922"><stop offset="0%" stop-color="rgb(55,50,40)" stop-opacity="1"/><stop offset="64%" stop-color="rgb(55,50,40)" stop-opacity="0.5"/><stop offset="100%" stop-color="rgb(55,50,40)" stop-opacity="0"/></radialGradient><radialGradient id="__lottie_element_636" spreadMethod="pad" gradientUnits="userSpaceOnUse" cx="176.6840057373047" cy="134.4290008544922" r="10.75" fx="176.6840057373047" fy="134.4290008544922"><stop offset="0%" stop-color="rgb(55,50,40)" stop-opacity="1"/><stop offset="64%" stop-color="rgb(55,50,40)" stop-opacity="0.5"/><stop offset="100%" stop-color="rgb(55,50,40)" stop-opacity="0"/></radialGradient><radialGradient id="__lottie_element_637" spreadMethod="pad" gradientUnits="userSpaceOnUse" cx="149.6840057373047" cy="129.4290008544922" r="9.638992309570312" fx="149.6840057373047" fy="129.4290008544922"><stop offset="0%" stop-color="rgb(55,50,40)" stop-opacity="1"/><stop offset="64%" stop-color="rgb(55,50,40)" stop-opacity="0.5"/><stop offset="100%" stop-color="rgb(55,50,40)" stop-opacity="0"/></radialGradient><radialGradient id="__lottie_element_638" spreadMethod="pad" gradientUnits="userSpaceOnUse" cx="147.6840057373047" cy="164.4290008544922" r="10.625364522431038" fx="147.6840057373047" fy="164.4290008544922"><stop offset="0%" stop-color="rgb(55,50,40)" stop-opacity="1"/><stop offset="64%" stop-color="rgb(55,50,40)" stop-opacity="0.5"/><stop offset="100%" stop-color="rgb(55,50,40)" stop-opacity="0"/></radialGradient><linearGradient id="__lottie_element_1058" spreadMethod="pad" gradientUnits="userSpaceOnUse" x1="19.198999404907227" y1="16.027999877929688" x2="31.43199920654297" y2="120.18099975585938"><stop offset="0%" stop-color="rgb(198,143,63)"/><stop offset="25%" stop-color="rgb(182,126,54)"/><stop offset="51%" stop-color="rgb(166,110,44)"/><stop offset="63%" stop-color="rgb(151,97,39)"/><stop offset="75%" stop-color="rgb(136,85,34)"/><stop offset="88%" stop-color="rgb(119,72,28)"/><stop offset="100%" stop-color="rgb(101,59,21)"/></linearGradient><linearGradient id="__lottie_element_1059" spreadMethod="pad" gradientUnits="userSpaceOnUse" x1="117.68499755859375" y1="121.42900085449219" x2="122.99700164794922" y2="12.529999732971191"><stop offset="0%" stop-color="rgb(255,237,162)" stop-opacity="1"/><stop offset="50%" stop-color="rgb(255,237,162)" stop-opacity="0.5"/><stop offset="100%" stop-color="rgb(255,237,162)" stop-opacity="0"/></linearGradient><linearGradient id="__lottie_element_1060" spreadMethod="pad" gradientUnits="userSpaceOnUse" x1="46.28099822998047" y1="39.04199981689453" x2="77.44400024414062" y2="117.91000366210938"><stop offset="0%" stop-color="rgb(101,59,21)" stop-opacity="0"/><stop offset="50%" stop-color="rgb(101,59,21)" stop-opacity="0.5"/><stop offset="100%" stop-color="rgb(101,59,21)" stop-opacity="1"/></linearGradient></defs><g clip-path="url(#__lottie_element_553)"><g transform="matrix(1,0,0,1,0,0)" opacity="1" style="display: block;"><path fill="rgb(0,0,0)" fill-opacity="0.21175999999999998" d=" M506,51 C506,51 506,467 506,467 C506,491.83551025390625 485.83551025390625,512 461,512 C461,512 45,512 45,512 C20.164499282836914,512 0,491.83551025390625 0,467 C0,467 0,51 0,51 C0,26.164499282836914 20.164499282836914,6 45,6 C45,6 461,6 461,6 C485.83551025390625,6 506,26.164499282836914 506,51z"/></g><g clip-path="url(#__lottie_element_558)" transform="matrix(0.949999988079071,0,0,0.949999988079071,9.800003051757812,15.800003051757812)" opacity="1" style="display: block;"><g transform="matrix(0.6815369129180908,-0.8240549564361572,0.8192769289016724,0.685511589050293,266.66949462890625,309.70184326171875)" opacity="0.27600000000028047" style="display: none;"><g opacity="1" transform="matrix(1,0,0,1,0,0)"><path fill="url(#__lottie_element_572)" fill-opacity="1" d=" M71.68930053710938,15.155567169189453 C85.88419342041016,1.6286332607269287 113.03208923339844,21.861995697021484 171.46792602539062,40.839454650878906 C211.7064666748047,54.48438262939453 229.22718811035156,88.7328872680664 208.14389038085938,112.75879669189453 C184.0929412841797,140.8933868408203 157.54039001464844,142.44334411621094 114.68894958496094,101.08560180664062 C87.44332122802734,73.91098022460938 60.53632354736328,25.996145248413086 71.68930053710938,15.155567169189453z"/></g><g opacity="1" transform="matrix(1,0,0,1,0,0)"><path fill="url(#__lottie_element_573)" fill-opacity="0.3" d=" M208.31492614746094,112.76498413085938 C214.43092346191406,92.51197814941406 203.73570251464844,67.21766662597656 160.95289611816406,51.14646530151367 C111.42979431152344,32.773773193359375 88.22478485107422,15.865734100341797 72.28770446777344,16.28019905090332 C80.73641204833984,-1.3856024742126465 136.75442504882812,29.989151000976562 171.55557250976562,41.23284912109375 C208.3420867919922,52.533782958984375 231.56158447265625,86.6148910522461 208.31492614746094,112.76498413085938z"/></g><g opacity="1" transform="matrix(1,0,0,1,0,0)"><path fill="url(#__lottie_element_574)" fill-opacity="0.6" d=" M196.03872680664062,124.67841339111328 C179.7263946533203,136.79380798339844 154.5710906982422,140.9190673828125 110.3680648803711,94.88706970214844 C61.805538177490234,45.727325439453125 56.80543518066406,-5.143893241882324 100.84056091308594,15.253419876098633 C70.72086334228516,15.794816970825195 96.6036376953125,53.3095703125 128.71591186523438,83.39179992675781 C161.37310791015625,113.10220336914062 209.0250244140625,119.41707611083984 216.03497314453125,82.93363952636719 C216.42149353027344,80.96244049072266 221.20614624023438,105.79927825927734 196.03872680664062,124.67841339111328z"/></g><g opacity="1" transform="matrix(1,0,0,1,0,0)"><path stroke-linecap="round" stroke-linejoin="round" fill-opacity="0" stroke="rgb(85,48,14)" stroke-opacity="0.2" stroke-width="5" d=" M73.25740814208984,15.9678316116333 C70.76619720458984,27.375877380371094 89.8564682006836,56.34602355957031 116.05618286132812,80.56784057617188 C142.33384704589844,104.86138153076172 175.7631072998047,124.3787612915039 201.74349975585938,116.61183166503906"/></g><g opacity="1" transform="matrix(1,0,0,1,0,0)"><path stroke-linecap="round" stroke-linejoin="round" fill-opacity="0" stroke="rgb(133,83,33)" stroke-opacity="1" stroke-width="8" d=" M71.43583679199219,14.82036304473877 C85.3635482788086,1.6805073022842407 132.52182006835938,28.093353271484375 171.37403869628906,41.12905502319336 C211.78475952148438,54.6463737487793 227.9707489013672,87.85153198242188 208.2251739501953,112.233154296875 C184.09881591796875,142.0789794921875 155.9078826904297,139.94384765625 115.06202697753906,101.3324203491211 C95.34536743164062,82.31153869628906 84.62288665771484,62.19729232788086 77.25346374511719,47.710330963134766 C70.46566772460938,34.46878433227539 66.42530059814453,19.564250946044922 71.43583679199219,14.82036304473877z"/></g><g opacity="1" transform="matrix(1,0,0,1,0,0)"><path stroke-linecap="round" stroke-linejoin="round" fill-opacity="0" stroke="rgb(85,48,14)" stroke-opacity="1" stroke-width="8" d=" M208.29669189453125,112.52674102783203 C184.08282470703125,141.9677276611328 156.62890625,139.93003845214844 115.03741455078125,101.10980987548828 C99.96218872070312,86.4925537109375 81.87802124023438,57.004703521728516 75.85726928710938,44.21411895751953 C65.32746124267578,21.85401153564453 67.47747802734375,4.0354905128479 100.45171356201172,14.500789642333984"/></g></g><g transform="matrix(0.9325633645057678,-0.06622909009456635,0.05649711191654205,0.9600810408592224,255.2603759765625,278.0050048828125)" opacity="1" style="display: block;"><g opacity="1" transform="matrix(1,0,0,1,0,0)"><g opacity="1" transform="matrix(1,0,0,1,0,0)"><path fill="url(#__lottie_element_585)" fill-opacity="1" d=" M59.053001403808594,-185.4600067138672 C59.053001403808594,-185.4600067138672 77.55799865722656,-216.75100708007812 112.71900177001953,-205.21200561523438 C154.5,-191.5 156.5,-137.5 118.0469970703125,-120.41100311279297 C106.85399627685547,-115.99500274658203 63.02399826049805,-135.2239990234375 63.02399826049805,-135.2239990234375 C63.02399826049805,-135.2239990234375 51.145999908447266,-170.93600463867188 59.053001403808594,-185.4600067138672z"/></g><g opacity="1" transform="matrix(1,0,0,1,0,0)"><path fill="url(#__lottie_element_586)" fill-opacity="1" d=" M141.55499267578125,-181.08099365234375 C100,-226.75 71.25,-171.25 57.124000549316406,-160.77099609375 C46.75,-200.5 110.75,-234 141.55499267578125,-181.08099365234375z"/></g><g opacity="1" transform="matrix(1,0,0,1,0,0)"><path stroke-linecap="round" stroke-linejoin="round" fill-opacity="0" stroke="rgb(133,83,33)" stroke-opacity="1" stroke-width="8" d=" M59.053001403808594,-185.4600067138672 C59.053001403808594,-185.4600067138672 77.37799835205078,-216.18800354003906 112.71900177001953,-205.21200561523438 C147.83200073242188,-194.3070068359375 152.81399536132812,-157.74000549316406 136.6300048828125,-134.93299865722656 C131.41200256347656,-127.58000183105469 124.51799774169922,-122.96399688720703 118.0469970703125,-120.41100311279297 C106.85399627685547,-115.99500274658203 63.02399826049805,-135.2239990234375 63.02399826049805,-135.2239990234375 C63.02399826049805,-135.2239990234375 51.145999908447266,-170.93600463867188 59.053001403808594,-185.4600067138672z"/></g><g opacity="1" transform="matrix(1,0,0,1,7.5912017822265625,-0.45306396484375)"><path fill="url(#__lottie_element_587)" fill-opacity="1" d=" M76.95700073242188,-175.35499572753906 C76.95700073242188,-175.35499572753906 86.51100158691406,-192.8090057373047 106.99800109863281,-186.41099548339844 C124.28399658203125,-181.01300048828125 129.18299865722656,-159.4720001220703 120.38300323486328,-147.0709991455078 C113.2249984741211,-136.98399353027344 100.21800231933594,-136.61399841308594 100.21800231933594,-136.61399841308594 C100.21800231933594,-136.61399841308594 68.3479995727539,-154.3459930419922 76.95700073242188,-175.35499572753906z"/><path stroke-linecap="round" stroke-linejoin="round" fill-opacity="0" stroke="rgb(129,87,30)" stroke-opacity="1" stroke-width="8" d=" M76.95700073242188,-175.35499572753906 C76.95700073242188,-175.35499572753906 86.51100158691406,-192.8090057373047 106.99800109863281,-186.41099548339844 C124.28399658203125,-181.01300048828125 129.18299865722656,-159.4720001220703 120.38300323486328,-147.0709991455078 C113.2249984741211,-136.98399353027344 100.21800231933594,-136.61399841308594 100.21800231933594,-136.61399841308594 C100.21800231933594,-136.61399841308594 68.3479995727539,-154.3459930419922 76.95700073242188,-175.35499572753906z"/></g></g></g><g transform="matrix(0.9325633645057678,-0.06622909009456635,0.05649711191654205,0.9600810408592224,255.26031494140625,278.00482177734375)" opacity="1" style="display: block;"><g opacity="1" transform="matrix(1,0,0,1,0,0)"><g opacity="1" transform="matrix(1,0,0,1,0,0)"><path fill="url(#__lottie_element_591)" fill-opacity="1" d=" M1.9789999723434448,-190.75999450683594 C1.9789999723434448,-190.75999450683594 -7.435999870300293,-224.9550018310547 -45.277000427246094,-222.96299743652344 C-82.32099914550781,-221.01300048828125 -95.46099853515625,-186.0240020751953 -85.552001953125,-160.6020050048828 C-82.27799987792969,-152.20199584960938 -76.71199798583984,-146.04800415039062 -71.05500030517578,-141.99899291992188 C-61.270999908447266,-134.9949951171875 -14.081999778747559,-142.9949951171875 -14.081999778747559,-142.9949951171875 C-14.081999778747559,-142.9949951171875 6.11899995803833,-174.75 1.9789999723434448,-190.75999450683594z"/></g><g opacity="1" transform="matrix(1,0,0,1,0,0)"><path fill="url(#__lottie_element_592)" fill-opacity="1" d=" M-14.6899995803833,-149.99899291992188 C1,-218.5 -61.75,-236.5 -86.57599639892578,-192.18099975585938 C-67,-241.25 -7.25,-225 2.2249999046325684,-191.01100158691406 C5.25,-176.25 -7.75,-154.5 -14.6899995803833,-149.99899291992188z"/></g><g opacity="1" transform="matrix(1,0,0,1,0,0)"><path stroke-linecap="round" stroke-linejoin="round" fill-opacity="0" stroke="rgb(133,83,33)" stroke-opacity="1" stroke-width="8" d=" M1.9789999723434448,-190.75999450683594 C1.9789999723434448,-190.75999450683594 -7.427000045776367,-224.7760009765625 -45.277000427246094,-222.96299743652344 C-86.25,-221 -105.5,-169.5 -71.05500030517578,-141.99899291992188 C-61.270999908447266,-134.9949951171875 -14.081999778747559,-142.9949951171875 -14.081999778747559,-142.9949951171875 C-14.081999778747559,-142.9949951171875 6.11899995803833,-174.75 1.9789999723434448,-190.75999450683594z"/></g><g opacity="1" transform="matrix(1,0,0,1,4.7029571533203125,-0.939208984375)"><path fill="url(#__lottie_element_593)" fill-opacity="1" d=" M-17.8439998626709,-185.3090057373047 C-17.8439998626709,-185.3090057373047 -22.398000717163086,-204.60699462890625 -44.297000885009766,-203.3350067138672 C-62.821998596191406,-202.25900268554688 -72.36299896240234,-182.5959930419922 -66.84100341796875,-168.42799377441406 C-62.3489990234375,-156.9029998779297 -49.821998596191406,-153.38400268554688 -49.821998596191406,-153.38400268554688 C-49.821998596191406,-153.38400268554688 -14.598999977111816,-162.83700561523438 -17.8439998626709,-185.3090057373047z"/><path stroke-linecap="round" stroke-linejoin="round" fill-opacity="0" stroke="rgb(129,87,30)" stroke-opacity="1" stroke-width="8" d=" M-17.8439998626709,-185.3090057373047 C-17.8439998626709,-185.3090057373047 -22.398000717163086,-204.60699462890625 -44.297000885009766,-203.3350067138672 C-62.821998596191406,-202.25900268554688 -72.36299896240234,-182.5959930419922 -66.84100341796875,-168.42799377441406 C-62.3489990234375,-156.9029998779297 -49.821998596191406,-153.38400268554688 -49.821998596191406,-153.38400268554688 C-49.821998596191406,-153.38400268554688 -14.598999977111816,-162.83700561523438 -17.8439998626709,-185.3090057373047z"/></g></g></g><g transform="matrix(1.0372189283370972,0.02230607345700264,-0.02404397539794445,0.9622485637664795,260.7234802246094,263.8265380859375)" opacity="1" style="display: block;"><g opacity="1" transform="matrix(0.9104499816894531,0,0,1,0,0)"><path fill="url(#__lottie_element_566)" fill-opacity="1" d=" M-84.37008666992188,-17.611957550048828 C-92.4120864868164,-3.9259567260742188 -113.66632080078125,43.0173225402832 -118.8553237915039,98.62032318115234 C-124.21031951904297,155.99732971191406 -98.13600158691406,186.07888793945312 -4.635000228881836,187.7248992919922 C87.8759994506836,189.35389709472656 119.47521209716797,159.6036834716797 115.1462173461914,103.22867584228516 C110.78321838378906,46.41067886352539 95.35308837890625,8.053956985473633 86.19408416748047,-12.760043144226074 C69.34608459472656,-60.57404327392578 -63.305084228515625,-69.42595672607422 -84.37008666992188,-17.611957550048828z"/></g><g opacity="1" transform="matrix(1,0,0,1,0,0)"><path fill="url(#__lottie_element_567)" fill-opacity="0.6" d=" M-4.446000099182129,187.72500610351562 C-89.98600006103516,186.0749969482422 -114.31925201416016,155.9449920654297 -108.68924713134766,98.63199615478516 C-106.28524780273438,74.15499114990234 -106.46212768554688,64.14116668701172 -95.41100311279297,40.27341842651367 C-113.24000549316406,103.43741607666016 -65.20838165283203,100.27713012695312 -46.99379348754883,132.77655029296875 C-33.79301071166992,156.32363891601562 25.601755142211914,168.855224609375 48.845760345458984,138.4619903564453 C64.0888900756836,118.54169464111328 103.94781494140625,119.4607162475586 99.3138198852539,65.90971374511719 C101.85382080078125,77.959716796875 104.01696014404297,90.77871704101562 104.89696502685547,103.21871948242188 C108.85696411132812,159.58871459960938 80.19400024414062,189.35499572753906 -4.446000099182129,187.72500610351562z"/></g><g opacity="1" transform="matrix(1,0,0,1,0,0)"><path stroke-linecap="round" stroke-linejoin="round" fill-opacity="0" stroke="rgb(86,50,17)" stroke-opacity="0.3" stroke-width="5" d=" M-94.8537826538086,40.82673263549805 C-94.8537826538086,40.82673263549805 -109.27550506591797,101.705322265625 -87.25250244140625,163.90232849121094"/></g><g opacity="1" transform="matrix(1.059999942779541,0,0,0.9100000262260437,4.437004089355469,9.460884094238281)"><g opacity="1" transform="matrix(1,0,0,1,0,0)"><g opacity="1" transform="matrix(0.9246900081634521,0,0,1,0,0)"><path fill="url(#__lottie_element_568)" fill-opacity="1" d=" M11.753000259399414,18.024999618530273 C-24.48900032043457,14.958999633789062 -56.0989990234375,41.12699890136719 -59.861000061035156,89.27799987792969 C-63.619998931884766,137.3990020751953 -31.836999893188477,158.66200256347656 2.071000099182129,160.39700317382812 C37.952999114990234,162.23300170898438 65.4739990234375,135.4759979248047 65.58899688720703,91.12699890136719 C65.697998046875,49.09400177001953 42.729000091552734,20.645000457763672 11.753000259399414,18.024999618530273z"/><path stroke-linecap="butt" stroke-linejoin="miter" fill-opacity="0" stroke-miterlimit="4" stroke="rgb(150,104,44)" stroke-opacity="1" stroke-width="8" d=" M11.753000259399414,18.024999618530273 C-24.48900032043457,14.958999633789062 -56.0989990234375,41.12699890136719 -59.861000061035156,89.27799987792969 C-63.619998931884766,137.3990020751953 -31.836999893188477,158.66200256347656 2.071000099182129,160.39700317382812 C37.952999114990234,162.23300170898438 65.4739990234375,135.4759979248047 65.58899688720703,91.12699890136719 C65.697998046875,49.09400177001953 42.729000091552734,20.645000457763672 11.753000259399414,18.024999618530273z"/></g><g opacity="1" transform="matrix(1,0,0,1,0,0.375)"><path stroke-linecap="round" stroke-linejoin="round" fill-opacity="0" stroke="rgb(118,82,34)" stroke-opacity="1" stroke-width="8.3" d=" M-51.44300079345703,120.4469985961914 C-43.29199981689453,146.80999755859375 -21.201000213623047,159.0959930419922 1.9789999723434448,160.39700317382812 C23.62700080871582,161.61199951171875 41.93600082397461,150.30099487304688 51.87300109863281,129.6540069580078"/></g></g><g opacity="1" transform="matrix(1.120877742767334,0,0,1,4.106571197509766,0.7701492309570312)"><g opacity="1" transform="matrix(1,0,0,1,0,0)"><path stroke-linecap="round" stroke-linejoin="round" fill-opacity="0" stroke="rgb(86,50,17)" stroke-opacity="0.3" stroke-width="5" d=" M-1.322912573814392,178.64869689941406 C-3.06058931350708,183.7548828125 -4.859564781188965,187.04173278808594 -7.078100204467773,187.7808380126953"/></g><g opacity="1" transform="matrix(1,0,0,1,0,0)"><path stroke-linecap="round" stroke-linejoin="round" fill-opacity="0" stroke="rgb(86,50,17)" stroke-opacity="0.3" stroke-width="5" d=" M3.2620468139648438,159.39451599121094 C2.6505579948425293,163.07040405273438 2.059610605239868,165.73843383789062 1.3718191385269165,168.7857208251953"/></g><g opacity="1" transform="matrix(1,0,0,1,0,0)"><path stroke-linecap="round" stroke-linejoin="round" fill-opacity="0" stroke="rgb(86,50,17)" stroke-opacity="0.3" stroke-width="5" d=" M6.0664191246032715,138.63441467285156 C5.619419097900391,142.24740600585938 5.220865726470947,144.92054748535156 4.7622222900390625,148.18397521972656"/></g><g opacity="1" transform="matrix(1,0,0,1,0,0)"><g opacity="1" transform="matrix(1,0,0,1,0,0)"><path stroke-linecap="round" stroke-linejoin="round" fill-opacity="0" stroke="rgb(86,50,17)" stroke-opacity="0.3" stroke-width="5" d=" M9.208999633789062,94.74400329589844 C9.060999870300293,98.33100128173828 8.883000373840332,100.91999816894531 8.673999786376953,104.48799896240234"/></g><path stroke-linecap="round" stroke-linejoin="round" fill-opacity="0" stroke="rgb(86,50,17)" stroke-opacity="0.3" stroke-width="5" d=" M7.936976432800293,117.66460418701172 C7.672976493835449,120.98660278320312 7.420851707458496,123.52130126953125 7.1417107582092285,126.67193603515625"/></g><g opacity="1" transform="matrix(1,0,0,1,0,0)"><path stroke-linecap="round" stroke-linejoin="round" fill-opacity="0" stroke="rgb(86,50,17)" stroke-opacity="0.3" stroke-width="5" d=" M9.699000358581543,75.66300201416016 C9.666999816894531,78.91799926757812 9.607000350952148,81.20600128173828 9.520000457763672,84.51100158691406"/></g><g opacity="1" transform="matrix(1,0,0,1,0,0)"><path stroke-linecap="round" stroke-linejoin="round" fill-opacity="0" stroke="rgb(86,50,17)" stroke-opacity="0.3" stroke-width="5" d=" M9.541000366210938,56.05699920654297 C9.62399959564209,59.08000183105469 9.678999900817871,61.16999816894531 9.706000328063965,64.31099700927734"/></g><g opacity="1" transform="matrix(1,0,0,1,0,0)"><path stroke-linecap="round" stroke-linejoin="round" fill-opacity="0" stroke="rgb(86,50,17)" stroke-opacity="0.3" stroke-width="5" d=" M8.729999542236328,37.277000427246094 C8.916000366210938,39.85300064086914 9.074999809265137,42.518001556396484 9.208000183105469,45.2599983215332"/></g><g opacity="1" transform="matrix(1,0,0,1,0,0)"><path stroke-linecap="round" stroke-linejoin="round" fill-opacity="0" stroke="rgb(86,50,17)" stroke-opacity="0.3" stroke-width="5" d=" M2.1560726165771484,1.5990142822265625 C4.259781837463379,4.7297563552856445 7.901996612548828,23.699718475341797 8.056575775146484,27.53428077697754"/></g></g></g><g opacity="1" transform="matrix(1.7427741289138794,-0.018281375989317894,0.010489236563444138,0.9999449849128723,-3.8993935585021973,0.07799530029296875)"><path fill="url(#__lottie_element_569)" fill-opacity="0.6" d=" M-41.965763092041016,-18.15135955810547 C-42.940765380859375,-14.539360046386719 -58.43635559082031,43.747459411621094 -61.31135559082031,99.38446044921875 C-64.27735900878906,156.7964630126953 63.98435592651367,158.8855438232422 61.848358154296875,102.54354095458984 C59.69535827636719,45.75954055786133 48.017765045166016,-10.241640090942383 46.875762939453125,-13.15463924407959 C34.11576461791992,-64.03263854980469 -30.431764602661133,-67.06336212158203 -41.965763092041016,-18.15135955810547z"/></g><g opacity="1" transform="matrix(1,0,0,1,0,0)"><path stroke-linecap="round" stroke-linejoin="round" fill-opacity="0" stroke="rgb(85,48,14)" stroke-opacity="1" stroke-width="8" d=" M-77.34266662597656,-17.611957550048828 C-80.88566589355469,-11.425956726074219 -104.16850280761719,43.0173225402832 -108.9155044555664,98.62032318115234 C-113.81450653076172,155.99732971191406 -89.98699951171875,186.0780029296875 -4.441999912261963,187.7239990234375 C80.1969985961914,189.35299682617188 109.07950592041016,159.6036834716797 105.1185073852539,103.22867584228516 C101.12650299072266,46.41067886352539 79.3316650390625,-10.696043014526367 78.6086654663086,-12.760043144226074 C56.63566589355469,-65.32404327392578 -58.88566589355469,-66.17595672607422 -77.34266662597656,-17.611957550048828z"/></g><g opacity="1" transform="matrix(1,0,0,1,0,0)"><path stroke-linecap="round" stroke-linejoin="round" fill-opacity="0" stroke="rgb(64,33,8)" stroke-opacity="1" stroke-width="8" d=" M-93.78350830078125,163.49232482910156 C-79.24650573730469,178.4533233642578 -47.5099983215332,186.89500427246094 -4.441999912261963,187.7239990234375 C41.698001861572266,188.61199951171875 75.32750701904297,180.5586700439453 90.47950744628906,163.419677734375"/></g></g><g transform="matrix(1.0304709672927856,-0.11183012276887894,0.1205429881811142,0.9559884071350098,260.3963928222656,253.73866271972656)" opacity="1" style="display: block;"><g opacity="1" transform="matrix(1,0,0,1,0,0)"><path fill="url(#__lottie_element_597)" fill-opacity="1" d=" M-62.11624526977539,-1.5201213359832764 C-62.672176361083984,-18.000471115112305 -88.47527313232422,-29.548542022705078 -96.6899642944336,5.579988479614258 C-111.91200256347656,70.52332305908203 -89.04654693603516,109.59224700927734 -33.754913330078125,120.23944854736328 C27.95758056640625,132.05075073242188 42.21450424194336,69.13595581054688 -46.65182113647461,58.573265075683594 C-51.262393951416016,46.82284164428711 -61.511234283447266,14.655086517333984 -62.11624526977539,-1.5201213359832764z"/></g><g opacity="1" transform="matrix(1,0,0,1,0,0)"><path fill="url(#__lottie_element_598)" fill-opacity="0.6" d=" M-35.65119552612305,119.5192642211914 C-51.311195373535156,116.45726013183594 -103.19261169433594,100.36402130126953 -100.53307342529297,38.88737487792969 C-90.81071472167969,67.66439819335938 -72.89068603515625,89.15328979492188 -35.73705291748047,100.56342315673828 C-18.743135452270508,105.79280090332031 9.940308570861816,103.75576782226562 16.24247932434082,94.53588104248047 C15.392894744873047,120.9713363647461 -9.900195121765137,124.55426025390625 -35.65119552612305,119.5192642211914z"/></g><g opacity="1" transform="matrix(1,0,0,1,0,0)"><path fill="url(#__lottie_element_599)" fill-opacity="0.3" d=" M-63.83930587768555,-8.203583717346191 C-61.00639343261719,10.687986373901367 -55.32680130004883,38.450096130371094 -46.5488395690918,58.420555114746094 C-13.048271179199219,63.61761474609375 16.474346160888672,74.18579864501953 16.35310935974121,101.32109832763672 C8.799110412597656,72.46109771728516 -51.70064926147461,72.77951049804688 -58.253944396972656,62.327369689941406 C-66.42435455322266,49.414390563964844 -72.95305633544922,7.2450785636901855 -63.83930587768555,-8.203583717346191z"/></g><g opacity="1" transform="matrix(1,0,0,1,0,0)"><path stroke-linecap="round" stroke-linejoin="round" fill-opacity="0" stroke="rgb(85,48,14)" stroke-opacity="0.2" stroke-width="5" d=" M16.776456832885742,97.40956115722656 C15.145654678344727,109.06302642822266 -17.950260162353516,113.76374053955078 -43.28007507324219,104.01010131835938 C-73.78973388671875,92.27530670166016 -102.32440948486328,73.1537857055664 -99.30257415771484,18.0592098236084"/></g><g opacity="1" transform="matrix(1,0,0,1,0,0)"><g opacity="1" transform="matrix(1,0,0,1,0,0)"><path stroke-linecap="round" stroke-linejoin="round" fill-opacity="0" stroke="rgb(133,83,33)" stroke-opacity="1" stroke-width="8" d=" M-62.11402130126953,-1.3879457712173462 C-62.61248016357422,-18.05398178100586 -88.40583038330078,-29.36009407043457 -96.63341522216797,5.637147903442383 C-111.94437408447266,70.54617309570312 -89.10975646972656,109.7136001586914 -33.78493881225586,120.22517395019531 C28.134376525878906,131.93026733398438 42.32117462158203,69.14661407470703 -46.69650650024414,58.55670928955078 C-51.31550598144531,46.87970733642578 -61.588890075683594,14.526519775390625 -62.11402130126953,-1.3879457712173462z"/></g><g opacity="1" transform="matrix(1,0,0,1,0,0)"><path stroke-linecap="round" stroke-linejoin="round" fill-opacity="0" stroke="rgb(85,48,14)" stroke-opacity="1" stroke-width="8" d=" M-101.48704528808594,38.652183532714844 C-103.10770416259766,94.64513397216797 -63.33473587036133,114.3979263305664 -36.03364944458008,119.47838592529297 C1.708142876625061,126.49661254882812 15.163758277893066,111.46888732910156 15.420853614807129,100.27725219726562 C15.830470085144043,85.86483764648438 9.342026710510254,79.36080169677734 1.0598734617233276,74.0520248413086"/></g><g opacity="1" transform="matrix(1,0,0,1,0,0)"><path stroke-linecap="round" stroke-linejoin="miter" fill-opacity="0" stroke-miterlimit="4" stroke="rgb(133,83,33)" stroke-opacity="1" stroke-width="8" d=" M-51.012699127197266,58.34174728393555 C-47.53334045410156,58.530704498291016 -46.53966522216797,58.54227066040039 -46.348663330078125,58.53627014160156"/></g></g></g><g transform="matrix(1.0206876993179321,0.17256028950214386,-0.18600472807884216,0.9469122886657715,264.52203369140625,252.78440856933594)" opacity="1" style="display: block;"><g opacity="1" transform="matrix(1,0,0,1,0,0)"><path fill="url(#__lottie_element_1058)" fill-opacity="1" d=" M74.13740539550781,10.221674919128418 C77.07569885253906,1.693841814994812 87.9149398803711,-4.264247894287109 102.2667007446289,13.312647819519043 C144.51284790039062,64.79077911376953 125.1451187133789,116.57398223876953 49.30933380126953,101.86124420166016 C-2.079216957092285,92.36058807373047 9.37415599822998,39.89226531982422 76.38187408447266,45.15704345703125 C77.75729370117188,40.42848587036133 69.97186279296875,22.081378936767578 74.13740539550781,10.221674919128418z"/></g><g opacity="1" transform="matrix(1,0,0,1,0,0)"><path fill="url(#__lottie_element_1059)" fill-opacity="0.3" d=" M79.82502746582031,3.652599334716797 C77.49686431884766,23.665325164794922 105.95648193359375,61.23514938354492 81.5268325805664,58.65261459350586 C59.78001403808594,56.366119384765625 31.351024627685547,60.7664909362793 19.472476959228516,66.25324249267578 C20.875463485717773,57.92662811279297 46.029048919677734,41.31217575073242 76.78263854980469,44.90757369995117 C78.23042297363281,38.1492805480957 64.80903625488281,11.79334831237793 79.82502746582031,3.652599334716797z"/></g><g opacity="1" transform="matrix(1,0,0,1,0,0)"><path fill="url(#__lottie_element_1060)" fill-opacity="0.6" d=" M123.8278579711914,71.09197998046875 C117.35182189941406,95.85971069335938 94.2699203491211,107.33069610595703 66.94251251220703,104.4017562866211 C30.487323760986328,100.49481201171875 12.706257820129395,90.02976989746094 19.858257293701172,65.04476928710938 C25.319257736206055,85.26676940917969 50.25558853149414,91.34107971191406 76.45987701416016,86.57685852050781 C103.42169952392578,81.59536743164062 125.78942108154297,65.19863891601562 117.05980682373047,39.216941833496094 C116.3599853515625,37.379154205322266 127.27658081054688,57.95283889770508 123.8278579711914,71.09197998046875z"/></g><g opacity="1" transform="matrix(1,0,0,1,0,0)"><path stroke-linecap="round" stroke-linejoin="round" fill-opacity="0" stroke="rgb(85,48,14)" stroke-opacity="0.2" stroke-width="5" d=" M123.4349136352539,54.674583435058594 C125.42693328857422,70.50802612304688 119.7406234741211,81.45091247558594 101.42826843261719,87.18933868408203 C76.05043029785156,95.13919830322266 34.65087890625,93.01937866210938 19.044635772705078,78.52958679199219"/></g><g opacity="1" transform="matrix(1,0,0,1,0,0)"><path stroke-linecap="round" stroke-linejoin="round" fill-opacity="0" stroke="rgb(133,83,33)" stroke-opacity="1" stroke-width="8" d=" M74.26746368408203,10.188165664672852 C78.2791748046875,-0.3478177785873413 89.59025573730469,-1.620221734046936 102.4416732788086,14.080921173095703 C144.52713012695312,64.99044799804688 124.8668441772461,116.42063903808594 49.49418640136719,101.49915313720703 C-1.8211625814437866,91.79053497314453 9.6749849319458,40.33252716064453 76.51582336425781,45.13233184814453 C77.66690826416016,41.52303695678711 73.85032653808594,28.174692153930664 73.13640594482422,21.086925506591797 C72.64360046386719,15.7041015625 71.89629364013672,16.40812110900879 74.26746368408203,10.188165664672852z"/></g><g opacity="1" transform="matrix(1,0,0,1,0,0)"><path stroke-linecap="round" stroke-linejoin="round" fill-opacity="0" stroke="rgb(85,48,14)" stroke-opacity="1" stroke-width="8" d=" M118.30644226074219,41.00080108642578 C138.32046508789062,81.77915954589844 107.96939086914062,107.19976806640625 68.31539154052734,104.63076782226562 C23.837387084960938,101.74876403808594 14.577664375305176,83.79495239257812 18.727069854736328,66.9926528930664 C18.980070114135742,67.4006576538086 18.45595932006836,67.50765228271484 19.04595947265625,66.85765075683594"/></g><g opacity="1" transform="matrix(1,0,0,1,0,0)"><path stroke-linecap="round" stroke-linejoin="miter" fill-opacity="0" stroke-miterlimit="4" stroke="rgb(133,83,33)" stroke-opacity="1" stroke-width="8" d=" M90.76644897460938,46.6613883972168 C88.30646514892578,46.06538009643555 79.5823974609375,45.09613800048828 76.61722564697266,45.11453628540039"/></g></g><g transform="matrix(1.0353126525878906,-0.06243229657411575,0.06729649752378464,0.9604800939559937,273.47259521484375,274.1201477050781)" opacity="1" style="display: block;"><g opacity="1" transform="matrix(1,0,0,1,0,0)"><path fill="url(#__lottie_element_580)" fill-opacity="1" d=" M32.00223922729492,-194.08111572265625 C-29.09816551208496,-208.55718994140625 -98.86251068115234,-163.93763732910156 -102.96814727783203,-89.09278106689453 C-106.50465393066406,-25.091360092163086 -53.92100143432617,10.048999786376953 5.4039998054504395,16.974000930786133 C67.23500061035156,24.19099998474121 106.48890686035156,1.3396152257919312 114.46691131591797,-57.883384704589844 C122.4359130859375,-117.0403823852539 100.0956039428711,-177.9123992919922 32.00223922729492,-194.08111572265625z"/><path stroke-linecap="round" stroke-linejoin="round" fill-opacity="0" stroke="rgb(133,83,33)" stroke-opacity="1" stroke-width="8" d=" M32.00223922729492,-194.08111572265625 C-29.09816551208496,-208.55718994140625 -98.86251068115234,-163.93763732910156 -102.96814727783203,-89.09278106689453 C-106.50465393066406,-25.091360092163086 -53.92100143432617,10.048999786376953 5.4039998054504395,16.974000930786133 C67.23500061035156,24.19099998474121 106.48890686035156,1.3396152257919312 114.46691131591797,-57.883384704589844 C122.4359130859375,-117.0403823852539 100.0956039428711,-177.9123992919922 32.00223922729492,-194.08111572265625z"/></g><g opacity="1" transform="matrix(1,0,0,1,0,0)"><path fill="url(#__lottie_element_581)" fill-opacity="1" d=" M30.10367774963379,-186.44552612304688 C-22.934322357177734,-192.7355194091797 -69.76300048828125,-164.26856994628906 -77.32032012939453,-113.62960815429688 C-85.46752166748047,-59.04796600341797 -35.192596435546875,-39.50029754638672 15.023677825927734,-31.701683044433594 C71.64800262451172,-22.89874839782715 104.85081481933594,-38.66453552246094 106.30845642089844,-84.62792205810547 C107.79566955566406,-131.67987060546875 81.48767852783203,-180.35153198242188 30.10367774963379,-186.44552612304688z"/></g><g opacity="1" transform="matrix(1,0,0,1,0,0)"><path fill="url(#__lottie_element_582)" fill-opacity="0.4" d=" M91.60175323486328,-128.739013671875 C91.72454833984375,-109.69380187988281 73.8901138305664,-99.90416717529297 33.52809524536133,-104.39891815185547 C-7.451781749725342,-108.96392059326172 -49.2432975769043,-117.86946868896484 -46.29507827758789,-145.48004150390625 C-43.919490814208984,-167.78489685058594 -7.9558305740356445,-189.8170166015625 24.663677215576172,-186.85153198242188 C65.10845947265625,-183.16708374023438 91.42986297607422,-152.6597442626953 91.60175323486328,-128.739013671875z"/></g><g opacity="0.3" transform="matrix(0.8408324718475342,0,0,0.9303642511367798,17.82567596435547,-21.657188415527344)"><g opacity="1" transform="matrix(1,0,0,1,0,0)"><path stroke-linecap="round" stroke-linejoin="round" fill-opacity="0" stroke="rgb(133,83,33)" stroke-opacity="1" stroke-width="5" d=" M63.28099822998047,-84.42500305175781 C63.25400161743164,-80.1520004272461 63.40399932861328,-75.71800231933594 63.7599983215332,-71.12300109863281"/></g><g opacity="1" transform="matrix(1,0,0,1,0,0)"><path stroke-linecap="round" stroke-linejoin="round" fill-opacity="0" stroke="rgb(133,83,33)" stroke-opacity="1" stroke-width="5" d=" M65.08300018310547,-106.58699798583984 C64.52300262451172,-103.08300018310547 64.07599639892578,-99.42900085449219 63.766998291015625,-95.6240005493164"/></g><g opacity="1" transform="matrix(1,0,0,1,0,0)"><path stroke-linecap="round" stroke-linejoin="round" fill-opacity="0" stroke="rgb(133,83,33)" stroke-opacity="1" stroke-width="5" d=" M70.39900207519531,-128.26600646972656 C69.23100280761719,-124.7969970703125 68.14800262451172,-121.09100341796875 67.19599914550781,-117.1500015258789"/></g><g opacity="1" transform="matrix(1,0,0,1,0,0)"><path stroke-linecap="round" stroke-linejoin="round" fill-opacity="0" stroke="rgb(133,83,33)" stroke-opacity="1" stroke-width="5" d=" M78.53299713134766,-147.16200256347656 C77.15299987792969,-144.58299255371094 75.75299835205078,-141.73300170898438 74.38999938964844,-138.61500549316406"/></g><g opacity="0" transform="matrix(1,0,0,1,0,0)"><path stroke-linecap="round" stroke-linejoin="round" fill-opacity="0" stroke="rgb(133,83,33)" stroke-opacity="1" stroke-width="5" d=" M83.76191711425781,-155.73667907714844 C83.76191711425781,-155.73667907714844 83.36995697021484,-155.5770721435547 82.92123413085938,-154.7559356689453"/></g><g opacity="1" transform="matrix(1,0,0,1,0,0)"><path stroke-linecap="round" stroke-linejoin="round" fill-opacity="0" stroke="rgb(133,83,33)" stroke-opacity="1" stroke-width="5" d=" M-22.361000061035156,-93.13400268554688 C-22.600000381469727,-89.68800354003906 -22.892000198364258,-86.10600280761719 -23.240999221801758,-82.38099670410156"/></g><g opacity="1" transform="matrix(1,0,0,1,0,0)"><path stroke-linecap="round" stroke-linejoin="round" fill-opacity="0" stroke="rgb(133,83,33)" stroke-opacity="1" stroke-width="5" d=" M-21.506000518798828,-113.8489990234375 C-21.542999267578125,-110.12699890136719 -21.652000427246094,-106.19400024414062 -21.8439998626709,-102.04000091552734"/></g><g opacity="1" transform="matrix(1,0,0,1,0,0)"><path stroke-linecap="round" stroke-linejoin="round" fill-opacity="0" stroke="rgb(133,83,33)" stroke-opacity="1" stroke-width="5" d=" M-22.503000259399414,-138.61500549316406 C-22.134000778198242,-134.95799255371094 -21.85099983215332,-130.9739990234375 -21.68000030517578,-126.63300323486328"/></g><g opacity="1" transform="matrix(1,0,0,1,0,0)"><path stroke-linecap="round" stroke-linejoin="round" fill-opacity="0" stroke="rgb(133,83,33)" stroke-opacity="1" stroke-width="5" d=" M-26.78700065612793,-161.11500549316406 C-25.808000564575195,-157.98699951171875 -24.884000778198242,-154.31199645996094 -24.091999053955078,-149.99899291992188"/></g><g opacity="1" transform="matrix(1,0,0,1,0,0)"><path stroke-linecap="round" stroke-linejoin="round" fill-opacity="0" stroke="rgb(133,83,33)" stroke-opacity="1" stroke-width="5" d=" M-36.70262908935547,-178.1170654296875 C-36.70262908935547,-178.1170654296875 -33.89734649658203,-176.60890197753906 -30.698030471801758,-170.6761474609375"/></g></g><g opacity="1" transform="matrix(1,0,0,1,0,0)"><path stroke-linecap="round" stroke-linejoin="round" fill-opacity="0" stroke="rgb(85,48,14)" stroke-opacity="1" stroke-width="8" d=" M-96.38700103759766,-48.80099868774414 C-84.55284881591797,-13.130067825317383 -42.404727935791016,11.066766738891602 5.11798620223999,16.773601531982422 C66.68277740478516,24.16764259338379 95.14071655273438,-1.3330535888671875 106.04216003417969,-26.348527908325195"/></g></g><g transform="matrix(0.9757642149925232,-0.06463273614645004,0.06103770062327385,0.9602488875389099,288.7711486816406,267.1428527832031)" opacity="1" style="display: block;"><g opacity="1" transform="matrix(1,0,0,1,-4.100788116455078,-0.8882980346679688)"><g opacity="1" transform="matrix(1,0,0,1,0,0)"><path fill="rgb(16,20,28)" fill-opacity="1" d=" M79.9749984741211,-65.76499938964844 C83.70999908447266,-58.62900161743164 68.19999694824219,-53.3380012512207 59.902000427246094,-53.986000061035156 C50.74800109863281,-54.70100021362305 37.59199905395508,-64.10700225830078 41.345001220703125,-69.46700286865234 C44.733001708984375,-74.30599975585938 47.025001525878906,-65.74099731445312 59.12900161743164,-64.38999938964844 C73.0270004272461,-62.8390007019043 77.16699981689453,-71.12999725341797 79.9749984741211,-65.76499938964844z"/></g><g opacity="0" transform="matrix(1,0,0,1,0,0)"><path fill="url(#__lottie_element_611)" fill-opacity="1" d=" M59.38399887084961,-61.611000061035156 C55.64699935913086,-61.96099853515625 52.237998962402344,-64.77100372314453 50.30799865722656,-62.47999954223633 C48.37799835205078,-60.18899917602539 52.40999984741211,-53.34299850463867 59.4010009765625,-53.17100143432617 C66.39199829101562,-52.999000549316406 71.06999969482422,-59.0359992980957 68.92400360107422,-61.58700180053711 C66.77799987792969,-64.13800048828125 63.051998138427734,-61.266998291015625 59.38399887084961,-61.611000061035156z"/></g><g opacity="0" transform="matrix(1,0,0,1,0,0)"><path fill="url(#__lottie_element_612)" fill-opacity="1" d=" M61.367000579833984,-75.33100128173828 C56.35900115966797,-75.677001953125 54.42499923706055,-70.12200164794922 60.189998626708984,-69.18199920654297 C66.85099792480469,-68.09600067138672 66.91200256347656,-74.947998046875 61.367000579833984,-75.33100128173828z"/></g></g><g opacity="1" transform="matrix(1,0,0,1,0,0)"><g opacity="1" transform="matrix(1,0,0,1,0,0)"><path fill="rgb(16,20,28)" fill-opacity="1" d=" M-3.7799999713897705,-74.97599792480469 C-0.5379999876022339,-68.43699645996094 -16.003000259399414,-63.04600143432617 -24.445999145507812,-63.737998962402344 C-34.32500076293945,-64.5469970703125 -47.90299987792969,-70.5 -44.09299850463867,-77.677001953125 C-41.125999450683594,-83.26599884033203 -37.68000030517578,-74.43599700927734 -24.33300018310547,-73.65899658203125 C-11.234000205993652,-72.89700317382812 -6.445000171661377,-80.35099792480469 -3.7799999713897705,-74.97599792480469z"/></g><g opacity="0" transform="matrix(1,0,0,1,0,0)"><path fill="url(#__lottie_element_613)" fill-opacity="1" d=" M-24.759000778198242,-71.30799865722656 C-28.496999740600586,-71.6510009765625 -31.910999298095703,-74.4520034790039 -33.83700180053711,-72.15699768066406 C-35.76300048828125,-69.86199951171875 -31.715999603271484,-63.025001525878906 -24.724000930786133,-62.867000579833984 C-17.73200035095215,-62.70899963378906 -13.067999839782715,-68.75800323486328 -15.218999862670898,-71.30400085449219 C-17.3700008392334,-73.8499984741211 -21.09000015258789,-70.97200012207031 -24.759000778198242,-71.30799865722656z"/></g><g opacity="0" transform="matrix(1,0,0,1,0,0)"><path fill="url(#__lottie_element_614)" fill-opacity="1" d=" M-22.80500030517578,-85.03199768066406 C-27.81399917602539,-85.36799621582031 -29.736000061035156,-79.80799865722656 -23.9689998626709,-78.87999725341797 C-17.305999755859375,-77.80799865722656 -17.259000778198242,-84.66000366210938 -22.80500030517578,-85.03199768066406z"/></g></g></g><g transform="matrix(0.9757642149925232,-0.06463273614645004,0.06103770062327385,0.9602488875389099,288.7711486816406,267.1428527832031)" opacity="1" style="display: block;"><g opacity="1" transform="matrix(1,0,0,1,0,0)"><path fill="url(#__lottie_element_605)" fill-opacity="1" d=" M15.753000259399414,-67.86199951171875 C-12.810805320739746,-71.06095123291016 -52.10404968261719,-47.10917282104492 -41.44205093383789,-20.339174270629883 C-30.24505043029785,7.773825645446777 44.771629333496094,11.65591049194336 59.934627532958984,-8.111089706420898 C76.10862731933594,-29.19508934020996 56.273128509521484,-63.322845458984375 15.753000259399414,-67.86199951171875z"/><path stroke-linecap="butt" stroke-linejoin="miter" fill-opacity="0" stroke-miterlimit="4" stroke="rgb(141,96,47)" stroke-opacity="1" stroke-width="8" d=" M15.753000259399414,-67.86199951171875 C-12.810805320739746,-71.06095123291016 -52.10404968261719,-47.10917282104492 -41.44205093383789,-20.339174270629883 C-30.24505043029785,7.773825645446777 44.771629333496094,11.65591049194336 59.934627532958984,-8.111089706420898 C76.10862731933594,-29.19508934020996 56.273128509521484,-63.322845458984375 15.753000259399414,-67.86199951171875z"/></g><g opacity="1" transform="matrix(1,0,0,1,0,0)"><path stroke-linecap="round" stroke-linejoin="round" fill-opacity="0" stroke="rgb(188,148,82)" stroke-opacity="0.5" stroke-width="8" d=" M62.880767822265625,-35.95836639404297 C57.769309997558594,-50.719783782958984 39.529998779296875,-65.43900299072266 15.753000259399414,-67.86199951171875 C-4.335000038146973,-69.90899658203125 -31.15528106689453,-55.585880279541016 -38.131412506103516,-44.84153747558594"/></g><g opacity="1" transform="matrix(1,0,0,1,7.911624908447266,4.139825820922852)"><g opacity="0" transform="matrix(1,0,0,1,0,0)"><path fill="url(#__lottie_element_606)" fill-opacity="1" d=" M12.913000106811523,-25.701000213623047 C8.694000244140625,-21.048999786376953 7.328999996185303,-19.57900047302246 3.7669999599456787,-18.680999755859375 C8.640000343322754,-14.28499984741211 16.441999435424805,-14.762999534606934 20.32699966430664,-17.7189998626709 C16.97100067138672,-18.514999389648438 15.619000434875488,-20.90999984741211 12.913000106811523,-25.701000213623047z"/><path stroke-linecap="round" stroke-linejoin="round" fill-opacity="0" stroke="rgb(61,34,12)" stroke-opacity="1" stroke-width="5.5" d=" M12.913000106811523,-25.701000213623047 C8.694000244140625,-21.048999786376953 7.328999996185303,-19.57900047302246 3.7669999599456787,-18.680999755859375 C8.640000343322754,-14.28499984741211 16.441999435424805,-14.762999534606934 20.32699966430664,-17.7189998626709 C16.97100067138672,-18.514999389648438 15.619000434875488,-20.90999984741211 12.913000106811523,-25.701000213623047z"/></g><g opacity="1" transform="matrix(1,0,0,1,0,0)"><path stroke-linecap="round" stroke-linejoin="round" fill-opacity="0" stroke="rgb(103,59,22)" stroke-opacity="1" stroke-width="6" d=" M-22.76042366027832,-26.242870330810547 C-16.781423568725586,-18.00187110900879 -2.427424430847168,-15.545870780944824 5.400575637817383,-19.71487045288086 C11.107575416564941,-22.75387191772461 13.223538398742676,-25.48590850830078 13.137537956237793,-35.97591018676758"/></g><g opacity="1" transform="matrix(1,0,0,1,0,0)"><path stroke-linecap="round" stroke-linejoin="round" fill-opacity="0" stroke="rgb(103,59,22)" stroke-opacity="1" stroke-width="6" d=" M41.04899597167969,-18.963523864746094 C38.24042510986328,-13.800004005432129 14.790575981140137,-10.972870826721191 12.981575965881348,-29.02787208557129"/></g><g opacity="1" transform="matrix(1,0,0,1,0,0)"><g opacity="1" transform="matrix(1,0,0,1,0,0)"><path fill="url(#__lottie_element_607)" fill-opacity="1" d=" M15.300000190734863,-58.95000076293945 C5.7870001792907715,-59.80400085449219 -2.575000047683716,-57.89899826049805 -2.5999999046325684,-51.395999908447266 C-2.625,-44.84299850463867 8.883999824523926,-32.96900177001953 13.61400032043457,-32.457000732421875 C19,-31.875 31.854999542236328,-43.49700164794922 32.617000579833984,-49.2130012512207 C33.37900161743164,-54.92900085449219 24.194000244140625,-58.152000427246094 15.300000190734863,-58.95000076293945z"/><path stroke-linecap="butt" stroke-linejoin="miter" fill-opacity="0" stroke-miterlimit="4" stroke="rgb(16,20,28)" stroke-opacity="1" stroke-width="8" d=" M15.300000190734863,-58.95000076293945 C5.7870001792907715,-59.80400085449219 -2.575000047683716,-57.89899826049805 -2.5999999046325684,-51.395999908447266 C-2.625,-44.84299850463867 8.883999824523926,-32.96900177001953 13.61400032043457,-32.457000732421875 C19,-31.875 31.854999542236328,-43.49700164794922 32.617000579833984,-49.2130012512207 C33.37900161743164,-54.92900085449219 24.194000244140625,-58.152000427246094 15.300000190734863,-58.95000076293945z"/></g><g opacity="1" transform="matrix(1,0,0,1,0,0)"><path fill="url(#__lottie_element_608)" fill-opacity="0.6" d=" M26.809999465942383,-46.54100036621094 C31.812999725341797,-51 23.878999710083008,-54.4379997253418 15.470000267028809,-54.97700119018555 C0.5,-55.9370002746582 0.875,-51.5 2.75600004196167,-48.56399917602539 C3.25,-50.8129997253418 7.828000068664551,-50.862998962402344 15.145000457763672,-50.26900100708008 C22.312999725341797,-49.6870002746582 27.125,-48.5 26.809999465942383,-46.54100036621094z"/></g></g></g></g><g transform="matrix(-1.0374975204467773,0,0,0.9625070691108704,252.87135314941406,260.1141357421875)" opacity="1" style="display: block;"><g opacity="1" transform="matrix(1,0,0,1,0,0)"><path fill="url(#__lottie_element_618)" fill-opacity="1" d=" M91.55577850341797,123.94898986816406 C92.67303466796875,124.04054260253906 95.20060729980469,125.49785614013672 95.98081970214844,123.81957244873047 C102.30475616455078,106.98682403564453 112.5721664428711,90.5688247680664 139.9264373779297,88.87158966064453 C176.86004638671875,86.52213287353516 202.07052612304688,120.50051879882812 192.77088928222656,153.48580932617188 C184.47715759277344,183.03338623046875 164.43125915527344,208.14500427246094 136.0482635498047,206.1439971923828 C102.09725952148438,203.75 67.64972686767578,183.77239990234375 57.86072540283203,174.23439025878906 C44.335182189941406,162.5590362548828 57.2799186706543,116.70772552490234 91.55577850341797,123.94898986816406z"/></g><g opacity="1" transform="matrix(1,0,0,1,0,0)"><path fill="url(#__lottie_element_619)" fill-opacity="0.6" d=" M57.870426177978516,174.56036376953125 C67.45316314697266,184.11788940429688 102.33003234863281,203.75 135.3250274658203,206.14300537109375 C160.80503845214844,207.99099731445312 178.95945739746094,187.5117950439453 189.5764617919922,162.27479553222656 C117.40514373779297,61.034603118896484 116.0328598022461,161.79855346679688 87.06798553466797,159.0458526611328 C64.17408752441406,156.8488311767578 62.376808166503906,146.43699645996094 67.65380859375,128.76100158691406 C53.126808166503906,138.43699645996094 48.36833953857422,165.0909423828125 57.870426177978516,174.56036376953125z"/></g><g opacity="1" transform="matrix(1,0,0,1,0,0)"><path stroke-linecap="round" stroke-linejoin="round" fill-opacity="0" stroke="rgb(132,82,33)" stroke-opacity="1" stroke-width="8" d=" M91.55577850341797,123.94898986816406 C92.69969940185547,124.17520904541016 95.27999114990234,125.59192657470703 95.98081970214844,123.81957244873047 C102.4783706665039,106.415283203125 112.14149475097656,90.5475082397461 139.49752807617188,88.87158966064453 C176.86004638671875,86.52213287353516 202.07052612304688,120.4421615600586 192.77088928222656,153.48580932617188 C184.49496459960938,183.04112243652344 164.43125915527344,208.14500427246094 136.0482635498047,206.1439971923828 C102.09725952148438,203.75 67.64972686767578,183.77239990234375 57.86072540283203,174.23439025878906 C43.669185638427734,160.75393676757812 57.842369079589844,116.47685241699219 91.55577850341797,123.94898986816406z"/></g><g opacity="1" transform="matrix(1,0,0,1,0,0)"><path stroke-linecap="round" stroke-linejoin="round" fill-opacity="0" stroke="rgb(92,49,10)" stroke-opacity="0.7000000000000001" stroke-width="8" d=" M189.33799743652344,163.15780639648438 C178.19900512695312,187.82980346679688 161.25326538085938,207.9080047607422 136.0482635498047,206.1439971923828 C101.84725952148438,203.75 68.64835357666016,182.60438537597656 57.86072540283203,174.23439025878906 C42.559200286865234,162.50079345703125 59.2061653137207,118.54138946533203 87.9704818725586,123.35887145996094"/></g><g opacity="1" transform="matrix(1,0,0,1,0,0)"><path stroke-linecap="round" stroke-linejoin="round" fill-opacity="0" stroke="rgb(85,48,14)" stroke-opacity="1" stroke-width="8" d=" M189.33799743652344,163.15780639648438 C179.69509887695312,187.67100524902344 161.2392578125,208.1060028076172 136.0482635498047,206.1439971923828 C102.09725952148438,203.5 67.64972686767578,183.77239990234375 57.86072540283203,174.23439025878906"/></g><g opacity="1" transform="matrix(1,0,0,1,0,0)"><path stroke-linecap="round" stroke-linejoin="round" fill-opacity="0" stroke="rgb(133,83,33)" stroke-opacity="0.6" stroke-width="8" d=" M95.60242462158203,123.81598663330078 C95.60242462158203,123.81598663330078 93.84854888916016,129.97195434570312 91.50265502929688,141.40762329101562"/></g></g><g transform="matrix(-1.0374975204467773,0,0,0.9625070691108704,252.87135314941406,260.1141357421875)" opacity="1" style="display: block;"><g opacity="1" transform="matrix(0.9688509106636047,0.3486576974391937,-0.33860886096954346,0.9409272074699402,49.356117248535156,-51.532073974609375)"><g opacity="1" transform="matrix(0.8332874774932861,-0.6054188013076782,0.6054188013076782,0.8332874774932861,-70.94454956054688,127.8596420288086)"><g opacity="1" transform="matrix(1,0,0,1,0,0)"><path fill="rgb(154,110,58)" fill-opacity="1" d=" M124.78399658203125,134.48399353027344 C143,103.4540023803711 170.375,106.5 188.91700744628906,119.17400360107422 C206.53799438476562,131.218994140625 208.86500549316406,157.88999938964844 196.56700134277344,175.50900268554688 C175.93800354003906,205.06300354003906 144.88900756835938,206.86599731445312 129.40199279785156,192.86900329589844 C114.87000274658203,179.73500061035156 115.125,150.93699645996094 124.78399658203125,134.48399353027344z"/><path stroke-linecap="round" stroke-linejoin="round" fill-opacity="0" stroke="rgb(104,63,27)" stroke-opacity="1" stroke-width="8" d=" M124.78399658203125,134.48399353027344 C143,103.4540023803711 170.375,106.5 188.91700744628906,119.17400360107422 C206.53799438476562,131.218994140625 208.86500549316406,157.88999938964844 196.56700134277344,175.50900268554688 C175.93800354003906,205.06300354003906 144.88900756835938,206.86599731445312 129.40199279785156,192.86900329589844 C114.87000274658203,179.73500061035156 115.125,150.93699645996094 124.78399658203125,134.48399353027344z"/></g><g opacity="1" transform="matrix(1,0,0,1,0,0)"><g opacity="1" transform="matrix(1,0,0,1,0,0)"><path fill="rgb(27,20,5)" fill-opacity="1" d=" M193.2779998779297,171.50999450683594 C184.2259979248047,174.74000549316406 174.5469970703125,167.02499389648438 180.57200622558594,157.15699768066406 C184.5,150.72300720214844 197.07899475097656,146.4080047607422 202.32000732421875,155.0590057373047 C206.0749969482422,161.25799560546875 200.27699279785156,169.01199340820312 193.2779998779297,171.50999450683594z"/></g><g opacity="1" transform="matrix(1,0,0,1,0,0)"><path fill="url(#__lottie_element_623)" fill-opacity="1" d=" M193.9980010986328,164.89100646972656 C211.125,155.15199279785156 193.18699645996094,142.125 180.8730010986328,156.70899963378906 C176.63099670410156,164.05299377441406 185.56300354003906,169.68699645996094 193.9980010986328,164.89100646972656z"/></g></g><g opacity="1" transform="matrix(1,0,0,1,0,0)"><g opacity="1" transform="matrix(1,0,0,1,0,0)"><path fill="rgb(27,20,5)" fill-opacity="1" d=" M170.61900329589844,128.843994140625 C178.00799560546875,121.51300048828125 190.9810028076172,124.55899810791016 189.5659942626953,136.95799255371094 C188.64300537109375,145.04299926757812 178.2949981689453,155.05999755859375 169.24099731445312,149.052001953125 C162.7530059814453,144.7469940185547 164.90499877929688,134.51300048828125 170.61900329589844,128.843994140625z"/></g><g opacity="1" transform="matrix(1,0,0,1,0,0)"><path fill="url(#__lottie_element_624)" fill-opacity="1" d=" M165.33900451660156,139.64999389648438 C164.81300354003906,150.81300354003906 185.23199462890625,148.1230010986328 187.4929962158203,133.32400512695312 C189.5,120.18800354003906 166.81300354003906,122.56300354003906 165.33900451660156,139.64999389648438z"/></g></g><g opacity="1" transform="matrix(1,0,0,1,0,0)"><g opacity="1" transform="matrix(1,0,0,1,0,0)"><path fill="rgb(27,20,5)" fill-opacity="1" d=" M141.1790008544922,126.7750015258789 C144.8820037841797,117.90599822998047 157.10400390625,115.94100189208984 160.3470001220703,127.03900146484375 C162.46099853515625,134.27499389648438 157.18499755859375,146.48199462890625 147.25900268554688,144.53500366210938 C140.14599609375,143.13999938964844 138.31500244140625,133.63299560546875 141.1790008544922,126.7750015258789z"/></g><g opacity="1" transform="matrix(1,0,0,1,0,0)"><path fill="url(#__lottie_element_625)" fill-opacity="1" d=" M140.0330047607422,131.10000610351562 C139.5,143.18699645996094 158.56199645996094,143 157.53199768066406,124.80899810791016 C157.04600524902344,116.22799682617188 141.5,117.68699645996094 140.0330047607422,131.10000610351562z"/></g></g><g opacity="1" transform="matrix(1,0,0,1,0,0)"><g opacity="1" transform="matrix(1,0,0,1,0,0)"><path fill="rgb(27,20,5)" fill-opacity="1" d=" M130.4459991455078,167.87600708007812 C130.46800231933594,157.57699584960938 146.73699951171875,148.71400451660156 163.67100524902344,157.49899291992188 C181.468994140625,166.73300170898438 180.57699584960938,188.67100524902344 169.33200073242188,192 C161.02000427246094,194.4600067138672 156.0749969482422,188.7570037841797 149.11399841308594,183.2469940185547 C142.1529998779297,177.73699951171875 130.4239959716797,178.2100067138672 130.4459991455078,167.87600708007812z"/></g><g opacity="1" transform="matrix(1.496399998664856,0,0,1,-73.28105163574219,0)"><path fill="url(#__lottie_element_626)" fill-opacity="1" d=" M136.71400451660156,169.92799377441406 C138.26699829101562,178.6739959716797 160.15199279785156,174.83900451660156 158.76199340820312,163.97799682617188 C157.61000061035156,154.97799682617188 150.6020050048828,153.69700622558594 147.7220001220703,154.01199340820312 C140.98399353027344,154.75 135.26199340820312,161.75 136.71400451660156,169.92799377441406z"/></g></g></g></g></g><g transform="matrix(1.0374975204467773,0,0,0.9625070691108704,256.11248779296875,263.7235412597656)" opacity="1" style="display: block;"><g opacity="1" transform="matrix(1,0,0,1,0,0)"><path fill="url(#__lottie_element_630)" fill-opacity="1" d=" M100.61161804199219,123.78099822998047 C109.772216796875,125.94715881347656 125.7149658203125,127.5365982055664 126.86962890625,126.26209259033203 C140.77452087402344,110.85356140136719 141.8944854736328,93.19366455078125 169.6102294921875,92.58709716796875 C200.91217041015625,91.83695220947266 222.6475067138672,121.66693878173828 210.95094299316406,153.907470703125 C198.1818084716797,188.44923400878906 178.6205291748047,206.4029998779297 150.25653076171875,204.1439971923828 C121.89253234863281,201.88499450683594 82.60455322265625,183.63999938964844 72.8155517578125,174.1020050048828 C59.90199661254883,163.06381225585938 71.67975616455078,120.19850158691406 100.61161804199219,123.78099822998047z"/></g><g opacity="1" transform="matrix(1,0,0,1,0,0)"><path fill="url(#__lottie_element_631)" fill-opacity="0.6" d=" M72.42918395996094,173.9744873046875 C82.14005279541016,183.41217041015625 121.68523406982422,201.90699768066406 149.79823303222656,204.14300537109375 C175.2642364501953,206.17799377441406 197.0801239013672,187.7394256591797 207.55845642089844,162.55393981933594 C156.29788208007812,68.72771453857422 140.03977966308594,164.30856323242188 112.12371826171875,159.83460998535156 C91.01431274414062,156.54678344726562 76.20164489746094,147.4208526611328 81.47864532470703,129.74484252929688 C66.95164489746094,139.4208526611328 62.5436897277832,164.36160278320312 72.42918395996094,173.9744873046875z"/></g><g opacity="1" transform="matrix(1,0,0,1,0,0)"><path stroke-linecap="round" stroke-linejoin="round" fill-opacity="0" stroke="rgb(133,83,33)" stroke-opacity="1" stroke-width="8" d=" M100.61161804199219,123.78099822998047 C109.75194549560547,125.9325942993164 125.70318603515625,127.55204772949219 126.86962890625,126.26209259033203 C140.54550170898438,111.05509185791016 141.9044647216797,93.23421478271484 169.60934448242188,92.58709716796875 C200.93817138671875,91.77859497070312 222.62051391601562,121.63771057128906 210.95094299316406,153.907470703125 C198.20712280273438,188.45315551757812 178.6205291748047,206.4029998779297 150.25653076171875,204.1439971923828 C121.89253234863281,201.88499450683594 82.60455322265625,183.63999938964844 72.8155517578125,174.1020050048828 C59.59244155883789,163.05824279785156 71.73363494873047,120.4460678100586 100.61161804199219,123.78099822998047z"/></g><g opacity="1" transform="matrix(1,0,0,1,0,0)"><path stroke-linecap="round" stroke-linejoin="round" fill-opacity="0" stroke="rgb(93,50,11)" stroke-opacity="0.7000000000000001" stroke-width="8" d=" M207.62669372558594,163.6378173828125 C196.80064392089844,188.48858642578125 175.4435272216797,206.14999389648438 150.25653076171875,204.1439971923828 C121.89253234863281,201.88499450683594 83.41564178466797,182.72952270507812 72.8155517578125,174.1020050048828 C59.54719161987305,163.3102569580078 70.88520050048828,117.56439971923828 102.96341705322266,124.43624114990234"/></g><g opacity="1" transform="matrix(1,0,0,1,0,0)"><path stroke-linecap="round" stroke-linejoin="round" fill-opacity="0" stroke="rgb(84,47,13)" stroke-opacity="1" stroke-width="8" d=" M207.62669372558594,163.6378173828125 C196.74676513671875,188.48858642578125 175.4435272216797,206.14999389648438 150.25653076171875,204.1439971923828 C121.89253234863281,201.88499450683594 82.60455322265625,183.63999938964844 72.8155517578125,174.1020050048828"/></g><g opacity="1" transform="matrix(1,0,0,1,0,0)"><path stroke-linecap="round" stroke-linejoin="round" fill-opacity="0" stroke="rgb(133,83,33)" stroke-opacity="0.6" stroke-width="8" d=" M126.93537139892578,126.52120971679688 C126.93537139892578,126.52120971679688 122.47679138183594,134.68785095214844 118.75938415527344,142.72109985351562"/></g></g><g transform="matrix(1.0374975204467773,0,0,0.9625070691108704,256.11248779296875,263.7235412597656)" opacity="1" style="display: block;"><g opacity="1" transform="matrix(0.6956875324249268,0.28107601404190063,-0.37460657954216003,0.9271838665008545,126.66082763671875,-37.84907531738281)"><g opacity="1" transform="matrix(0.9271838665008545,-0.37460657954216003,0.37460657954216003,0.9271838665008545,-47.584197998046875,73.20055389404297)"><g opacity="1" transform="matrix(1,0,0,1,0,0)"><path fill="rgb(154,110,58)" fill-opacity="1" d=" M127.15899658203125,134.5469970703125 C145.11599731445312,103.36699676513672 172.7519989013672,107.69300079345703 188.91700744628906,119.17400360107422 C206.31900024414062,131.53399658203125 208.9709930419922,158.0800018310547 196.31700134277344,175.4459991455078 C176.14700317382812,203.1280059814453 146.88900756835938,204.3040008544922 131.40199279785156,190.3070068359375 C116.87000274658203,177.17300415039062 119.90699768066406,147.13900756835938 127.15899658203125,134.5469970703125z"/><path stroke-linecap="round" stroke-linejoin="round" fill-opacity="0" stroke="rgb(104,64,27)" stroke-opacity="1" stroke-width="8" d=" M127.15899658203125,134.5469970703125 C145.11599731445312,103.36699676513672 172.7519989013672,107.69300079345703 188.91700744628906,119.17400360107422 C206.31900024414062,131.53399658203125 208.9709930419922,158.0800018310547 196.31700134277344,175.4459991455078 C176.14700317382812,203.1280059814453 146.88900756835938,204.3040008544922 131.40199279785156,190.3070068359375 C116.87000274658203,177.17300415039062 119.90699768066406,147.13900756835938 127.15899658203125,134.5469970703125z"/></g><g opacity="1" transform="matrix(1,0,0,1,0,0)"><g opacity="1" transform="matrix(1,0,0,1,0,0)"><path fill="rgb(27,20,5)" fill-opacity="1" d=" M193.2779998779297,171.50999450683594 C184.2259979248047,174.74000549316406 174.5469970703125,167.02499389648438 180.57200622558594,157.15699768066406 C184.5,150.72300720214844 197.07899475097656,146.4080047607422 202.32000732421875,155.0590057373047 C206.0749969482422,161.25799560546875 200.27699279785156,169.01199340820312 193.2779998779297,171.50999450683594z"/></g><g opacity="1" transform="matrix(1,0,0,1,0,0)"><path fill="url(#__lottie_element_635)" fill-opacity="1" d=" M193.9980010986328,164.89100646972656 C211.125,155.15199279785156 193.18699645996094,142.125 180.8730010986328,156.70899963378906 C176.63099670410156,164.05299377441406 185.56300354003906,169.68699645996094 193.9980010986328,164.89100646972656z"/></g></g><g opacity="1" transform="matrix(1,0,0,1,0,0)"><g opacity="1" transform="matrix(1,0,0,1,0,0)"><path fill="rgb(27,20,5)" fill-opacity="1" d=" M170.61900329589844,128.843994140625 C178.00799560546875,121.51300048828125 190.9810028076172,124.55899810791016 189.5659942626953,136.95799255371094 C188.64300537109375,145.04299926757812 178.2949981689453,155.05999755859375 169.24099731445312,149.052001953125 C162.7530059814453,144.7469940185547 164.90499877929688,134.51300048828125 170.61900329589844,128.843994140625z"/></g><g opacity="1" transform="matrix(1,0,0,1,0,0)"><path fill="url(#__lottie_element_636)" fill-opacity="1" d=" M165.33900451660156,139.64999389648438 C164.81300354003906,150.81300354003906 185.23199462890625,148.1230010986328 187.4929962158203,133.32400512695312 C189.5,120.18800354003906 166.81300354003906,122.56300354003906 165.33900451660156,139.64999389648438z"/></g></g><g opacity="1" transform="matrix(1,0,0,1,0,0)"><g opacity="1" transform="matrix(1,0,0,1,0,0)"><path fill="rgb(27,20,5)" fill-opacity="1" d=" M141.1790008544922,126.7750015258789 C144.8820037841797,117.90599822998047 157.10400390625,115.94100189208984 160.3470001220703,127.03900146484375 C162.46099853515625,134.27499389648438 157.18499755859375,146.48199462890625 147.25900268554688,144.53500366210938 C140.14599609375,143.13999938964844 138.31500244140625,133.63299560546875 141.1790008544922,126.7750015258789z"/></g><g opacity="1" transform="matrix(1,0,0,1,0,0)"><path fill="url(#__lottie_element_637)" fill-opacity="1" d=" M140.0330047607422,131.10000610351562 C139.5,143.18699645996094 158.56199645996094,143 157.53199768066406,124.80899810791016 C157.04600524902344,116.22799682617188 141.5,117.68699645996094 140.0330047607422,131.10000610351562z"/></g></g><g opacity="1" transform="matrix(1,0,0,1,0,0)"><g opacity="1" transform="matrix(1,0,0,1,0,0)"><path fill="rgb(27,20,5)" fill-opacity="1" d=" M130.4459991455078,167.87600708007812 C130.46800231933594,157.57699584960938 146.73699951171875,148.71400451660156 163.67100524902344,157.49899291992188 C181.468994140625,166.73300170898438 180.57699584960938,188.67100524902344 169.33200073242188,192 C161.02000427246094,194.4600067138672 156.0749969482422,188.7570037841797 149.11399841308594,183.2469940185547 C142.1529998779297,177.73699951171875 130.4239959716797,178.2100067138672 130.4459991455078,167.87600708007812z"/></g><g opacity="1" transform="matrix(1.496399998664856,0,0,1,-73.28105163574219,0)"><path fill="url(#__lottie_element_638)" fill-opacity="1" d=" M136.71400451660156,169.92799377441406 C138.26699829101562,178.6739959716797 160.15199279785156,174.83900451660156 158.76199340820312,163.97799682617188 C157.61000061035156,154.97799682617188 150.6020050048828,153.69700622558594 147.7220001220703,154.01199340820312 C140.98399353027344,154.75 135.26199340820312,161.75 136.71400451660156,169.92799377441406z"/></g></g></g></g></g></g></g></svg>