<svg xmlns="http://www.w3.org/2000/svg" xmlns:xlink="http://www.w3.org/1999/xlink" viewBox="0 0 512 512" width="512" height="512" preserveAspectRatio="xMidYMid meet" style="width: 100%; height: 100%; transform: translate3d(0px, 0px, 0px); content-visibility: visible;"><defs><clipPath id="__lottie_element_969"><rect width="512" height="512" x="0" y="0"/></clipPath><clipPath id="__lottie_element_974"><path d="M0,0 L512,0 L512,512 L0,512z"/></clipPath><linearGradient id="__lottie_element_980" spreadMethod="pad" gradientUnits="userSpaceOnUse" x1="-86" y1="167" x2="-98.1259994506836" y2="-48.242000579833984"><stop offset="0%" stop-color="rgb(249,208,33)"/><stop offset="50%" stop-color="rgb(249,184,17)"/><stop offset="100%" stop-color="rgb(249,159,0)"/><stop offset="100%" stop-color="rgb(252,207,128)"/><stop offset="100%" stop-color="rgb(255,255,255)"/></linearGradient><linearGradient id="__lottie_element_999" spreadMethod="pad" gradientUnits="userSpaceOnUse" x1="106.18299865722656" y1="-72.96500396728516" x2="30" y2="-226.01100158691406"><stop offset="27%" stop-color="rgb(255,255,255)" stop-opacity="0"/><stop offset="74%" stop-color="rgb(255,255,255)" stop-opacity="0.5"/><stop offset="100%" stop-color="rgb(255,255,255)" stop-opacity="1"/></linearGradient><linearGradient id="__lottie_element_1000" spreadMethod="pad" gradientUnits="userSpaceOnUse" x1="-94" y1="-70" x2="-143.75999450683594" y2="-170.5679931640625"><stop offset="27%" stop-color="rgb(255,255,255)" stop-opacity="0"/><stop offset="74%" stop-color="rgb(255,255,255)" stop-opacity="0.5"/><stop offset="100%" stop-color="rgb(255,255,255)" stop-opacity="1"/></linearGradient></defs><g clip-path="url(#__lottie_element_969)"><g transform="matrix(1,0,0,1,0,0)" opacity="1" style="display: block;"><path fill="rgb(0,0,0)" fill-opacity="0.21175999999999998" d=" M506,51 C506,51 506,467 506,467 C506,491.83551025390625 485.83551025390625,512 461,512 C461,512 45,512 45,512 C20.164499282836914,512 0,491.83551025390625 0,467 C0,467 0,51 0,51 C0,26.164499282836914 20.164499282836914,6 45,6 C45,6 461,6 461,6 C485.83551025390625,6 506,26.164499282836914 506,51z"/></g><g clip-path="url(#__lottie_element_974)" transform="matrix(0.949999988079071,0,0,0.949999988079071,9.800003051757812,15.800003051757812)" opacity="1" style="display: block;"><g transform="matrix(1,0,0,1,256,256)" opacity="1" style="display: block;"><g opacity="1" transform="matrix(1,0,0,1,0,0)"><path fill="rgb(255,237,105)" fill-opacity="1" d=" M-6.728801250457764,-83.2644271850586 C-6.728801250457764,-83.2644271850586 -182.30572509765625,-3.3117876052856445 -182.30572509765625,-3.3117876052856445 C-182.30572509765625,-3.3117876052856445 0.2939217984676361,55.6287727355957 0.2939217984676361,55.6287727355957 C0.2939217984676361,55.6287727355957 182.3039093017578,-8.289571762084961 182.3039093017578,-8.289571762084961 C182.3039093017578,-8.289571762084961 -6.728801250457764,-83.2644271850586 -6.728801250457764,-83.2644271850586z"/><path stroke-linecap="round" stroke-linejoin="round" fill-opacity="0" stroke="rgb(234,130,6)" stroke-opacity="1" stroke-width="9" d=" M-6.728801250457764,-83.2644271850586 C-6.728801250457764,-83.2644271850586 -182.30572509765625,-3.3117876052856445 -182.30572509765625,-3.3117876052856445 C-182.30572509765625,-3.3117876052856445 0.2939217984676361,55.6287727355957 0.2939217984676361,55.6287727355957 C0.2939217984676361,55.6287727355957 182.3039093017578,-8.289571762084961 182.3039093017578,-8.289571762084961 C182.3039093017578,-8.289571762084961 -6.728801250457764,-83.2644271850586 -6.728801250457764,-83.2644271850586z"/></g><g opacity="1" transform="matrix(1,0,0,1,0,0)"><path fill="rgb(255,237,105)" fill-opacity="1" d=" M-0.9762176275253296,66.10819244384766 C-0.9762176275253296,66.10819244384766 -6.728801250457764,-83.2644271850586 -6.728801250457764,-83.2644271850586"/><path stroke-linecap="round" stroke-linejoin="round" fill-opacity="0" stroke="rgb(234,130,6)" stroke-opacity="1" stroke-width="9" d=" M-0.9762176275253296,66.10819244384766 C-0.9762176275253296,66.10819244384766 -6.728801250457764,-83.2644271850586 -6.728801250457764,-83.2644271850586"/></g><g opacity="1" transform="matrix(1,0,0,1,0,0)"><path fill="url(#__lottie_element_980)" fill-opacity="1" d=" M-172.63970947265625,154.69000244140625 C-172.63970947265625,154.69000244140625 -189.34327697753906,86.95915222167969 -182.60813903808594,-2.8220248222351074 C-169.45640563964844,3.0326013565063477 -4.831915378570557,54.53282165527344 -1.866742730140686,55.44366455078125 C-0.38494113087654114,62.68560791015625 -0.3662780821323395,231.07583618164062 -0.3662780821323395,231.07583618164062 C-0.3662780821323395,231.07583618164062 -172.63970947265625,154.69000244140625 -172.63970947265625,154.69000244140625z"/><path stroke-linecap="round" stroke-linejoin="round" fill-opacity="0" stroke="rgb(234,130,6)" stroke-opacity="1" stroke-width="9" d=" M-172.63970947265625,154.69000244140625 C-172.63970947265625,154.69000244140625 -189.34327697753906,86.95915222167969 -182.60813903808594,-2.8220248222351074 C-169.45640563964844,3.0326013565063477 -4.831915378570557,54.53282165527344 -1.866742730140686,55.44366455078125 C-0.38494113087654114,62.68560791015625 -0.3662780821323395,231.07583618164062 -0.3662780821323395,231.07583618164062 C-0.3662780821323395,231.07583618164062 -172.63970947265625,154.69000244140625 -172.63970947265625,154.69000244140625z"/></g><g opacity="1" transform="matrix(1,0,0,1,0,0)"><path fill="rgb(249,159,0)" fill-opacity="1" d=" M171.77662658691406,152.69000244140625 C171.77662658691406,152.69000244140625 190.14846801757812,66.60487365722656 181.27052307128906,-9.277576446533203 C163.14572143554688,0.9371582865715027 -0.5593323111534119,54.925201416015625 -1.866742730140686,55.44366455078125 C-0.1669521927833557,68.1789321899414 -0.3662780821323395,231.07583618164062 -0.3662780821323395,231.07583618164062 C-0.3662780821323395,231.07583618164062 171.77662658691406,152.69000244140625 171.77662658691406,152.69000244140625z"/><path stroke-linecap="round" stroke-linejoin="round" fill-opacity="0" stroke="rgb(234,130,6)" stroke-opacity="1" stroke-width="9" d=" M171.77662658691406,152.69000244140625 C171.77662658691406,152.69000244140625 190.14846801757812,66.60487365722656 181.27052307128906,-9.277576446533203 C163.14572143554688,0.9371582865715027 -0.5593323111534119,54.925201416015625 -1.866742730140686,55.44366455078125 C-0.1669521927833557,68.1789321899414 -0.3662780821323395,231.07583618164062 -0.3662780821323395,231.07583618164062 C-0.3662780821323395,231.07583618164062 171.77662658691406,152.69000244140625 171.77662658691406,152.69000244140625z"/></g></g><g transform="matrix(0.9998841881752014,-0.015217911452054977,0.015217911452054977,0.9998841881752014,248.97914123535156,293.16912841796875)" opacity="0.54" style="display: block;"><g opacity="1" transform="matrix(1,0,0,1,0,0)"><path fill="rgb(234,130,6)" fill-opacity="1" d=" M-173.83657836914062,-2.7124176025390625 C-173.83657836914062,-2.7124176025390625 -170.08346557617188,-51.04405212402344 -170.08346557617188,-51.04405212402344 C-170.08346557617188,-51.04405212402344 3.6569879055023193,17.837034225463867 3.6569879055023193,17.837034225463867 C3.6569879055023193,17.837034225463867 3.6569879055023193,68.8590316772461 3.6569879055023193,68.8590316772461 C3.6569879055023193,68.8590316772461 -173.83657836914062,-2.7124176025390625 -173.83657836914062,-2.7124176025390625z"/></g><g opacity="1" transform="matrix(1,0,0,1,0,0)"><path fill="rgb(234,130,6)" fill-opacity="1" d=" M186.34933471679688,-1.6416945457458496 C186.34933471679688,-1.6416945457458496 188.79762268066406,-57.138851165771484 188.79762268066406,-57.138851165771484 C188.79762268066406,-57.138851165771484 3.6569879055023193,17.837034225463867 3.6569879055023193,17.837034225463867 C3.6569879055023193,17.837034225463867 3.6569879055023193,68.8590316772461 3.6569879055023193,68.8590316772461 C3.6569879055023193,68.8590316772461 186.34933471679688,-1.6416945457458496 186.34933471679688,-1.6416945457458496z"/></g></g><g transform="matrix(1,0,0,1,256,256)" opacity="1" style="display: block;"><g opacity="1" transform="matrix(1,0,0,1,0,0)"><path fill="rgb(188,4,4)" fill-opacity="1" d=" M66.14620971679688,202.87210083007812 C66.45584106445312,203.7586212158203 69.35072326660156,65.50013732910156 67.52399444580078,18.01674461364746 C67.06202697753906,1.6347559690475464 116.1182632446289,-10.165055274963379 116.62598419189453,1.4224345684051514 C121.65259552001953,109.88550567626953 112.18309020996094,182.17791748046875 112.18309020996094,182.17791748046875 C112.18309020996094,182.17791748046875 66.14620971679688,202.87210083007812 66.14620971679688,202.87210083007812z"/></g><g opacity="1" transform="matrix(1,0,0,1,0,0)"><path fill="rgb(221,5,5)" fill-opacity="1" d=" M-69.16896057128906,202.4001007080078 C-69.16896057128906,202.4001007080078 -71.91280364990234,105.3071517944336 -72.94989013671875,29.313465118408203 C-73.01432037353516,23.317249298095703 -117.53575134277344,5.740448474884033 -118.85887145996094,13.460317611694336 C-129.43185424804688,79.6600570678711 -113.32591247558594,182.6105499267578 -113.32591247558594,182.6105499267578 C-113.32591247558594,182.6105499267578 -69.16896057128906,202.4001007080078 -69.16896057128906,202.4001007080078z"/></g></g><g transform="matrix(0.9998841881752014,-0.015217911452054977,0.015217911452054977,0.9998841881752014,248.97914123535156,293.16912841796875)" opacity="0.54" style="display: block;"><g opacity="1" transform="matrix(1,0,0,1,0,0)"><path fill="rgb(153,0,0)" fill-opacity="1" d=" M-113.33282470703125,-28.311731338500977 C-113.33282470703125,-28.311731338500977 -64.32898712158203,-10.006827354431152 -64.32898712158203,-10.006827354431152 C-64.32898712158203,-10.006827354431152 -65.45848083496094,41.160194396972656 -65.45848083496094,41.160194396972656 C-65.45848083496094,41.160194396972656 -115.30955505371094,20.708385467529297 -115.30955505371094,20.708385467529297 C-115.30955505371094,20.708385467529297 -113.33282470703125,-28.311731338500977 -113.33282470703125,-28.311731338500977z"/></g><g opacity="1" transform="matrix(1,0,0,1,0,0)"><path fill="rgb(153,0,0)" fill-opacity="1" d=" M122.20381164550781,-30.243755340576172 C122.20381164550781,-30.243755340576172 73.76746368408203,-11.26138973236084 73.76746368408203,-11.26138973236084 C73.76746368408203,-11.26138973236084 73.63141632080078,41.1596794128418 73.63141632080078,41.1596794128418 C73.63141632080078,41.1596794128418 125.14175415039062,21.51665687561035 125.14175415039062,21.51665687561035 C125.14175415039062,21.51665687561035 122.20381164550781,-30.243755340576172 122.20381164550781,-30.243755340576172z"/></g></g><g transform="matrix(1,0,0,1,256,256)" opacity="1" style="display: block;"><g opacity="1" transform="matrix(1,0,0,1,0,0)"><path stroke-linecap="round" stroke-linejoin="round" fill-opacity="0" stroke="rgb(153,0,0)" stroke-opacity="1" stroke-width="9" d=" M66.14620971679688,202.87210083007812 C66.45584106445312,203.7586212158203 69.35072326660156,65.50013732910156 67.52399444580078,18.01674461364746 C67.06202697753906,1.6347559690475464 116.1182632446289,-10.165055274963379 116.62598419189453,1.4224345684051514 C121.65259552001953,109.88550567626953 112.18309020996094,182.17791748046875 112.18309020996094,182.17791748046875 C112.18309020996094,182.17791748046875 66.14620971679688,202.87210083007812 66.14620971679688,202.87210083007812z"/></g><g opacity="1" transform="matrix(1,0,0,1,0,0)"><path stroke-linecap="round" stroke-linejoin="round" fill-opacity="0" stroke="rgb(153,0,0)" stroke-opacity="1" stroke-width="9" d=" M-69.16896057128906,202.4001007080078 C-69.16896057128906,202.4001007080078 -71.91280364990234,105.3071517944336 -72.94989013671875,29.313465118408203 C-73.01432037353516,23.317249298095703 -117.53575134277344,5.740448474884033 -118.85887145996094,13.460317611694336 C-129.43185424804688,79.6600570678711 -113.32591247558594,182.6105499267578 -113.32591247558594,182.6105499267578 C-113.32591247558594,182.6105499267578 -69.16896057128906,202.4001007080078 -69.16896057128906,202.4001007080078z"/></g></g><g transform="matrix(0.9998841881752014,-0.015217911452054977,0.015217911452054977,0.9998841881752014,248.97914123535156,267.66912841796875)" opacity="1" style="display: block;"><g opacity="1" transform="matrix(1,0,0,1,0,0)"><g opacity="1" transform="matrix(1,0,0,1,0,0)"><path fill="rgb(255,237,105)" fill-opacity="1" d=" M0,-115.2739486694336 C0,-115.2739486694336 -197.93600463867188,-57.16400146484375 -197.93600463867188,-57.16400146484375 C-197.93600463867188,-57.16400146484375 -0.16328778862953186,19.106365203857422 -0.16328778862953186,19.106365203857422 C-0.16328778862953186,19.106365203857422 197.93600463867188,-57.16400146484375 197.93600463867188,-57.16400146484375 C197.93600463867188,-57.16400146484375 0,-115.2739486694336 0,-115.2739486694336z"/><path stroke-linecap="round" stroke-linejoin="round" fill-opacity="0" stroke="rgb(234,130,6)" stroke-opacity="1" stroke-width="9" d=" M0,-115.2739486694336 C0,-115.2739486694336 -197.93600463867188,-57.16400146484375 -197.93600463867188,-57.16400146484375 C-197.93600463867188,-57.16400146484375 -0.16328778862953186,19.106365203857422 -0.16328778862953186,19.106365203857422 C-0.16328778862953186,19.106365203857422 197.93600463867188,-57.16400146484375 197.93600463867188,-57.16400146484375 C197.93600463867188,-57.16400146484375 0,-115.2739486694336 0,-115.2739486694336z"/></g><g opacity="1" transform="matrix(1,0,0,1,0,0)"><path fill="rgb(255,217,23)" fill-opacity="1" d=" M-191.31100463867188,-7.289000034332275 C-191.31100463867188,-7.289000034332275 -197.93600463867188,-57.16400146484375 -197.93600463867188,-57.16400146484375 C-197.93600463867188,-57.16400146484375 -0.16328778862953186,19.106365203857422 -0.16328778862953186,19.106365203857422 C-0.16328778862953186,19.106365203857422 -0.16328778862953186,70.12925720214844 -0.16328778862953186,70.12925720214844 C-0.16328778862953186,70.12925720214844 -191.31100463867188,-7.289000034332275 -191.31100463867188,-7.289000034332275z"/><path stroke-linecap="round" stroke-linejoin="round" fill-opacity="0" stroke="rgb(234,130,6)" stroke-opacity="1" stroke-width="9" d=" M-191.31100463867188,-7.289000034332275 C-191.31100463867188,-7.289000034332275 -197.93600463867188,-57.16400146484375 -197.93600463867188,-57.16400146484375 C-197.93600463867188,-57.16400146484375 -0.16328778862953186,19.106365203857422 -0.16328778862953186,19.106365203857422 C-0.16328778862953186,19.106365203857422 -0.16328778862953186,70.12925720214844 -0.16328778862953186,70.12925720214844 C-0.16328778862953186,70.12925720214844 -191.31100463867188,-7.289000034332275 -191.31100463867188,-7.289000034332275z"/></g><g opacity="1" transform="matrix(1,0,0,1,0,0)"><path fill="rgb(255,181,34)" fill-opacity="1" d=" M191.11500549316406,-4.625999927520752 C191.11500549316406,-4.625999927520752 197.93600463867188,-57.16400146484375 197.93600463867188,-57.16400146484375 C197.93600463867188,-57.16400146484375 -0.16328778862953186,19.106365203857422 -0.16328778862953186,19.106365203857422 C-0.16328778862953186,19.106365203857422 -0.16328778862953186,70.12925720214844 -0.16328778862953186,70.12925720214844 C-0.16328778862953186,70.12925720214844 191.11500549316406,-4.625999927520752 191.11500549316406,-4.625999927520752z"/><path stroke-linecap="round" stroke-linejoin="round" fill-opacity="0" stroke="rgb(234,130,6)" stroke-opacity="1" stroke-width="9" d=" M191.11500549316406,-4.625999927520752 C191.11500549316406,-4.625999927520752 197.93600463867188,-57.16400146484375 197.93600463867188,-57.16400146484375 C197.93600463867188,-57.16400146484375 -0.16328778862953186,19.106365203857422 -0.16328778862953186,19.106365203857422 C-0.16328778862953186,19.106365203857422 -0.16328778862953186,70.12925720214844 -0.16328778862953186,70.12925720214844 C-0.16328778862953186,70.12925720214844 191.11500549316406,-4.625999927520752 191.11500549316406,-4.625999927520752z"/></g></g><g opacity="1" transform="matrix(1,0,0,1,0,0)"><g opacity="1" transform="matrix(1,0,0,1,0,0)"><g opacity="1" transform="matrix(1,0,0,1,0,0)"><path fill="rgb(175,8,8)" fill-opacity="1" d=" M-123.48980712890625,-28.66762351989746 C-123.48980712890625,-28.66762351989746 70.54562377929688,-94.59339141845703 70.54562377929688,-94.59339141845703 C70.54562377929688,-94.59339141845703 117.5343017578125,-81.01974487304688 117.5343017578125,-81.01974487304688 C117.5343017578125,-81.01974487304688 -74.97698211669922,-9.25133991241455 -74.97698211669922,-9.25133991241455 C-74.97698211669922,-9.25133991241455 -123.48980712890625,-28.66762351989746 -123.48980712890625,-28.66762351989746z"/><path stroke-linecap="round" stroke-linejoin="round" fill-opacity="0" stroke="rgb(153,0,0)" stroke-opacity="1" stroke-width="9" d=" M-123.48980712890625,-28.66762351989746 C-123.48980712890625,-28.66762351989746 70.54562377929688,-94.59339141845703 70.54562377929688,-94.59339141845703 C70.54562377929688,-94.59339141845703 117.5343017578125,-81.01974487304688 117.5343017578125,-81.01974487304688 C117.5343017578125,-81.01974487304688 -74.97698211669922,-9.25133991241455 -74.97698211669922,-9.25133991241455 C-74.97698211669922,-9.25133991241455 -123.48980712890625,-28.66762351989746 -123.48980712890625,-28.66762351989746z"/></g><g opacity="1" transform="matrix(1,0,0,1,0,0)"><path fill="rgb(201,0,0)" fill-opacity="1" d=" M-68.63395690917969,45.38120651245117 C-68.63395690917969,45.38120651245117 -71.59109497070312,-8.716340065002441 -71.59109497070312,-8.716340065002441 C-71.59109497070312,-8.716340065002441 -123.48980712890625,-28.66762351989746 -123.48980712890625,-28.66762351989746 C-123.48980712890625,-28.66762351989746 -119.81663513183594,23.85619354248047 -119.81663513183594,23.85619354248047 C-119.81663513183594,23.85619354248047 -68.63395690917969,45.38120651245117 -68.63395690917969,45.38120651245117z"/><path stroke-linecap="round" stroke-linejoin="round" fill-opacity="0" stroke="rgb(153,0,0)" stroke-opacity="1" stroke-width="9" d=" M-68.63395690917969,45.38120651245117 C-68.63395690917969,45.38120651245117 -71.59109497070312,-8.716340065002441 -71.59109497070312,-8.716340065002441 C-71.59109497070312,-8.716340065002441 -123.48980712890625,-28.66762351989746 -123.48980712890625,-28.66762351989746 C-123.48980712890625,-28.66762351989746 -119.81663513183594,23.85619354248047 -119.81663513183594,23.85619354248047 C-119.81663513183594,23.85619354248047 -68.63395690917969,45.38120651245117 -68.63395690917969,45.38120651245117z"/></g></g><g opacity="1" transform="matrix(1,0,0,1,0,0)"><g opacity="1" transform="matrix(1,0,0,1,0,0)"><path fill="rgb(175,8,8)" fill-opacity="1" d=" M125.12200927734375,-28.777803421020508 C125.12200927734375,-28.777803421020508 -68.90130615234375,-94.53829956054688 -68.90130615234375,-94.53829956054688 C-68.90130615234375,-94.53829956054688 -115.89009094238281,-81.07483673095703 -115.89009094238281,-81.07483673095703 C-115.89009094238281,-81.07483673095703 67.76963806152344,-9.131704330444336 67.76963806152344,-9.131704330444336 C67.76963806152344,-9.131704330444336 125.12200927734375,-28.777803421020508 125.12200927734375,-28.777803421020508z"/><path stroke-linecap="round" stroke-linejoin="round" fill-opacity="0" stroke="rgb(153,0,0)" stroke-opacity="1" stroke-width="9" d=" M125.12200927734375,-28.777803421020508 C125.12200927734375,-28.777803421020508 -68.90130615234375,-94.53829956054688 -68.90130615234375,-94.53829956054688 C-68.90130615234375,-94.53829956054688 -115.89009094238281,-81.07483673095703 -115.89009094238281,-81.07483673095703 C-115.89009094238281,-81.07483673095703 67.76963806152344,-9.131704330444336 67.76963806152344,-9.131704330444336 C67.76963806152344,-9.131704330444336 125.12200927734375,-28.777803421020508 125.12200927734375,-28.777803421020508z"/></g><g opacity="1" transform="matrix(1,0,0,1,0,0)"><path fill="rgb(188,4,4)" fill-opacity="1" d=" M67.30322265625,47.84984588623047 C67.30322265625,47.84984588623047 68.8239974975586,-7.161701202392578 68.8239974975586,-7.161701202392578 C68.8239974975586,-7.161701202392578 125.12200927734375,-28.777803421020508 125.12200927734375,-28.777803421020508 C125.12200927734375,-28.777803421020508 121.19689178466797,26.9366512298584 121.19689178466797,26.9366512298584 C121.19689178466797,26.9366512298584 67.30322265625,47.84984588623047 67.30322265625,47.84984588623047z"/><path stroke-linecap="round" stroke-linejoin="round" fill-opacity="0" stroke="rgb(153,0,0)" stroke-opacity="1" stroke-width="9" d=" M67.30322265625,47.84984588623047 C67.30322265625,47.84984588623047 68.8239974975586,-7.161701202392578 68.8239974975586,-7.161701202392578 C68.8239974975586,-7.161701202392578 125.12200927734375,-28.777803421020508 125.12200927734375,-28.777803421020508 C125.12200927734375,-28.777803421020508 121.19689178466797,26.9366512298584 121.19689178466797,26.9366512298584 C121.19689178466797,26.9366512298584 67.30322265625,47.84984588623047 67.30322265625,47.84984588623047z"/></g></g></g></g><g transform="matrix(0.9998841881752014,-0.015217911452054977,0.015217911452054977,0.9998841881752014,249.0017852783203,269.1572570800781)" opacity="1" style="display: block;"><g opacity="1" transform="matrix(0.9459016919136047,0.3244533836841583,-0.3244533836841583,0.9459016919136047,-19.340808868408203,-5.9139556884765625)"><g opacity="1" transform="matrix(1,0,0,1,0,0)"><path fill="rgb(175,0,0)" fill-opacity="1" d=" M16.583999633789062,-50.59199905395508 C16.583999633789062,-50.59199905395508 80.62694549560547,-57.136741638183594 118.57828521728516,-89.25440216064453 C171.8592071533203,-134.05264282226562 163.33267211914062,-161.24172973632812 163.33267211914062,-161.24172973632812 C163.33267211914062,-161.24172973632812 134.75418090820312,-180.31295776367188 110.05854034423828,-193.17869567871094 C110.05854034423828,-193.17869567871094 108.47273254394531,-163.484619140625 72.020263671875,-123.20500183105469 C34.81893539428711,-82.47417449951172 1.034999966621399,-59.292999267578125 1.034999966621399,-59.292999267578125 C1.034999966621399,-59.292999267578125 16.583999633789062,-50.59199905395508 16.583999633789062,-50.59199905395508z"/><path stroke-linecap="round" stroke-linejoin="round" fill-opacity="0" stroke="rgb(153,0,0)" stroke-opacity="1" stroke-width="9" d=" M16.583999633789062,-50.59199905395508 C16.583999633789062,-50.59199905395508 80.62694549560547,-57.136741638183594 118.57828521728516,-89.25440216064453 C171.8592071533203,-134.05264282226562 163.33267211914062,-161.24172973632812 163.33267211914062,-161.24172973632812 C163.33267211914062,-161.24172973632812 134.75418090820312,-180.31295776367188 110.05854034423828,-193.17869567871094 C110.05854034423828,-193.17869567871094 108.47273254394531,-163.484619140625 72.020263671875,-123.20500183105469 C34.81893539428711,-82.47417449951172 1.034999966621399,-59.292999267578125 1.034999966621399,-59.292999267578125 C1.034999966621399,-59.292999267578125 16.583999633789062,-50.59199905395508 16.583999633789062,-50.59199905395508z"/></g><g opacity="1" transform="matrix(1,0,0,1,0,0)"><path fill="rgb(255,11,11)" fill-opacity="1" d=" M1.034999966621399,-59.292999267578125 C1.034999966621399,-59.292999267578125 -8.724761962890625,-100.58444213867188 20.757740020751953,-145.66571044921875 C55.66703796386719,-197.26268005371094 109.09390258789062,-194.7342529296875 109.09390258789062,-194.7342529296875 C109.09390258789062,-194.7342529296875 141.57032775878906,-184.52328491210938 163.23887634277344,-161.61180114746094 C163.23887634277344,-161.61180114746094 124.5084457397461,-160.76722717285156 71.59393310546875,-119.20621490478516 C20.763622283935547,-79.29505920410156 10.380000114440918,-51.07600021362305 10.380000114440918,-51.07600021362305 C10.380000114440918,-51.07600021362305 1.034999966621399,-59.292999267578125 1.034999966621399,-59.292999267578125z"/><path stroke-linecap="round" stroke-linejoin="round" fill-opacity="0" stroke="rgb(153,0,0)" stroke-opacity="1" stroke-width="9" d=" M1.034999966621399,-59.292999267578125 C1.034999966621399,-59.292999267578125 -8.724761962890625,-100.58444213867188 20.757740020751953,-145.66571044921875 C55.66703796386719,-197.26268005371094 109.09390258789062,-194.7342529296875 109.09390258789062,-194.7342529296875 C109.09390258789062,-194.7342529296875 141.57032775878906,-184.52328491210938 163.23887634277344,-161.61180114746094 C163.23887634277344,-161.61180114746094 124.5084457397461,-160.76722717285156 71.59393310546875,-119.20621490478516 C20.763622283935547,-79.29505920410156 10.380000114440918,-51.07600021362305 10.380000114440918,-51.07600021362305 C10.380000114440918,-51.07600021362305 1.034999966621399,-59.292999267578125 1.034999966621399,-59.292999267578125z"/></g><g opacity="1" transform="matrix(1,0,0,1,0,0)"><path fill="url(#__lottie_element_999)" fill-opacity="1" d=" M20.01728057861328,-131.126953125 C20.01728057861328,-131.126953125 26.043519973754883,-149.5355682373047 51.37382507324219,-168.97076416015625 C67.21955108642578,-180.2318115234375 83.5988540649414,-183.16151428222656 83.5988540649414,-183.16151428222656 C83.5988540649414,-183.16151428222656 89.60525512695312,-167.9242401123047 117.9677963256836,-155.3236541748047 C117.9677963256836,-155.3236541748047 93.20210266113281,-147.61376953125 72.34146118164062,-129.88966369628906 C51.48081970214844,-112.16555786132812 43.88688278198242,-105.09050750732422 43.88688278198242,-105.09050750732422 C43.88688278198242,-105.09050750732422 37.720069885253906,-132.3092041015625 20.01728057861328,-131.126953125z"/></g></g><g opacity="1" transform="matrix(0.9459016919136047,-0.3244533836841583,0.3244533836841583,0.9459016919136047,22.589202880859375,-6.953788757324219)"><g opacity="1" transform="matrix(1,0,0,1,0,0)"><path fill="rgb(175,0,0)" fill-opacity="1" d=" M-25.71619415283203,-75.01918029785156 C-25.71619415283203,-75.01918029785156 -4.781000137329102,-64.73899841308594 -4.781000137329102,-64.73899841308594 C-4.781000137329102,-64.73899841308594 -9.07844066619873,-90.18588256835938 -19.773035049438477,-133.50161743164062 C-30.793811798095703,-177.23779296875 -82.9030990600586,-215.26231384277344 -119.87822723388672,-197.4087677001953 C-119.87822723388672,-197.4087677001953 -137.7692108154297,-170.12794494628906 -158.40248107910156,-142.7992401123047 C-158.40248107910156,-142.7992401123047 -138.77642822265625,-162.81890869140625 -102.30119323730469,-151.0723114013672 C-56.89249801635742,-136.55992126464844 -25.71619415283203,-75.01918029785156 -25.71619415283203,-75.01918029785156z"/><path stroke-linecap="round" stroke-linejoin="round" fill-opacity="0" stroke="rgb(153,0,0)" stroke-opacity="1" stroke-width="9" d=" M-25.71619415283203,-75.01918029785156 C-25.71619415283203,-75.01918029785156 -4.781000137329102,-64.73899841308594 -4.781000137329102,-64.73899841308594 C-4.781000137329102,-64.73899841308594 -9.07844066619873,-90.18588256835938 -19.773035049438477,-133.50161743164062 C-30.793811798095703,-177.23779296875 -82.9030990600586,-215.26231384277344 -119.87822723388672,-197.4087677001953 C-119.87822723388672,-197.4087677001953 -137.7692108154297,-170.12794494628906 -158.40248107910156,-142.7992401123047 C-158.40248107910156,-142.7992401123047 -138.77642822265625,-162.81890869140625 -102.30119323730469,-151.0723114013672 C-56.89249801635742,-136.55992126464844 -25.71619415283203,-75.01918029785156 -25.71619415283203,-75.01918029785156z"/></g><g opacity="1" transform="matrix(1,0,0,1,0,0)"><path fill="rgb(255,11,11)" fill-opacity="1" d=" M-4.781000137329102,-64.73899841308594 C-4.781000137329102,-64.73899841308594 -12.647276878356934,-78.19418334960938 -47.71103286743164,-103.67485809326172 C-83.75259399414062,-129.712158203125 -124.0617446899414,-155.05490112304688 -119.7986068725586,-197.4457244873047 C-119.7986068725586,-197.4457244873047 -137.76226806640625,-179.32464599609375 -160.2917938232422,-141.0350341796875 C-160.2917938232422,-141.0350341796875 -154.86683654785156,-100.4833755493164 -118.87480926513672,-82.53073120117188 C-79.27717590332031,-62.219207763671875 -48.212711334228516,-72.6164321899414 -4.781000137329102,-64.73899841308594z"/><path stroke-linecap="round" stroke-linejoin="round" fill-opacity="0" stroke="rgb(153,0,0)" stroke-opacity="1" stroke-width="9" d=" M-4.781000137329102,-64.73899841308594 C-4.781000137329102,-64.73899841308594 -12.647276878356934,-78.19418334960938 -47.71103286743164,-103.67485809326172 C-83.75259399414062,-129.712158203125 -124.0617446899414,-155.05490112304688 -119.7986068725586,-197.4457244873047 C-119.7986068725586,-197.4457244873047 -137.76226806640625,-179.32464599609375 -160.2917938232422,-141.0350341796875 C-160.2917938232422,-141.0350341796875 -154.86683654785156,-100.4833755493164 -118.87480926513672,-82.53073120117188 C-79.27717590332031,-62.219207763671875 -48.212711334228516,-72.6164321899414 -4.781000137329102,-64.73899841308594z"/></g><g opacity="1" transform="matrix(1,0,0,1,0,0)"><path fill="url(#__lottie_element_1000)" fill-opacity="1" d=" M-143.83116149902344,-110.81058502197266 C-143.83116149902344,-110.81058502197266 -119.63653564453125,-118.42312622070312 -110.5731201171875,-145.4936065673828 C-110.5731201171875,-145.4936065673828 -100.52539825439453,-128.21127319335938 -66.47089385986328,-108.86652374267578 C-66.47089385986328,-108.86652374267578 -91.58562469482422,-107.64102935791016 -97.73217010498047,-81.23628234863281 C-97.73217010498047,-81.23628234863281 -131.5306854248047,-87.29307556152344 -143.83116149902344,-110.81058502197266z"/></g></g><g opacity="1" transform="matrix(1,0,0,1,0,0)"><g opacity="1" transform="matrix(0.9868886470794678,0.16140244901180267,-0.16140244901180267,0.9868886470794678,-9.553033828735352,-2.4007034301757812)"><path fill="rgb(255,11,11)" fill-opacity="1" d=" M5.52400016784668,-54.275001525878906 C5.52400016784668,-54.275001525878906 34.346073150634766,-37.72807693481445 58.06828689575195,-25.258150100708008 C89.70629119873047,-9.930057525634766 123.04818725585938,0.22626955807209015 123.04818725585938,0.22626955807209015 C123.04818725585938,0.22626955807209015 134.6737060546875,-37.819313049316406 141.26577758789062,-55.28688049316406 C141.26577758789062,-55.28688049316406 114.34114074707031,-49.500892639160156 90.14852905273438,-54.21586608886719 C63.75288009643555,-60.3425407409668 21.690658569335938,-59.74058151245117 -2.7997052669525146,-63.36145782470703 C-2.7997052669525146,-63.36145782470703 5.52400016784668,-54.275001525878906 5.52400016784668,-54.275001525878906z"/><path stroke-linecap="round" stroke-linejoin="round" fill-opacity="0" stroke="rgb(153,0,0)" stroke-opacity="1" stroke-width="9" d=" M5.52400016784668,-54.275001525878906 C5.52400016784668,-54.275001525878906 34.346073150634766,-37.72807693481445 58.06828689575195,-25.258150100708008 C89.70629119873047,-9.930057525634766 123.04818725585938,0.22626955807209015 123.04818725585938,0.22626955807209015 C123.04818725585938,0.22626955807209015 134.6737060546875,-37.819313049316406 141.26577758789062,-55.28688049316406 C141.26577758789062,-55.28688049316406 114.34114074707031,-49.500892639160156 90.14852905273438,-54.21586608886719 C63.75288009643555,-60.3425407409668 21.690658569335938,-59.74058151245117 -2.7997052669525146,-63.36145782470703 C-2.7997052669525146,-63.36145782470703 5.52400016784668,-54.275001525878906 5.52400016784668,-54.275001525878906z"/></g><g opacity="1" transform="matrix(0.9868886470794678,-0.16140244901180267,0.16140244901180267,0.9868886470794678,10.240011215209961,-2.9439125061035156)"><path fill="rgb(255,11,11)" fill-opacity="1" d=" M0.7379999756813049,-61.76100158691406 C0.7379999756813049,-61.76100158691406 -26.733627319335938,-47.682254791259766 -54.75654602050781,-26.655052185058594 C-83.99629974365234,-5.149538516998291 -122.04204559326172,-4.969376564025879 -122.04204559326172,-4.969376564025879 C-122.04204559326172,-4.969376564025879 -122.33561706542969,-20.82426643371582 -129.83404541015625,-27.55356216430664 C-139.14242553710938,-38.122188568115234 -149.79049682617188,-45.486610412597656 -149.79049682617188,-45.486610412597656 C-149.79049682617188,-45.486610412597656 -130.45956420898438,-48.73695373535156 -81.50337982177734,-56.190853118896484 C-34.37895202636719,-63.51466369628906 -10.869805335998535,-70.2039794921875 -10.869805335998535,-70.2039794921875 C-10.869805335998535,-70.2039794921875 0.7379999756813049,-61.76100158691406 0.7379999756813049,-61.76100158691406z"/><path stroke-linecap="round" stroke-linejoin="round" fill-opacity="0" stroke="rgb(153,0,0)" stroke-opacity="1" stroke-width="9" d=" M0.7379999756813049,-61.76100158691406 C0.7379999756813049,-61.76100158691406 -26.733627319335938,-47.682254791259766 -54.75654602050781,-26.655052185058594 C-83.99629974365234,-5.149538516998291 -122.04204559326172,-4.969376564025879 -122.04204559326172,-4.969376564025879 C-122.04204559326172,-4.969376564025879 -122.33561706542969,-20.82426643371582 -129.83404541015625,-27.55356216430664 C-139.14242553710938,-38.122188568115234 -149.79049682617188,-45.486610412597656 -149.79049682617188,-45.486610412597656 C-149.79049682617188,-45.486610412597656 -130.45956420898438,-48.73695373535156 -81.50337982177734,-56.190853118896484 C-34.37895202636719,-63.51466369628906 -10.869805335998535,-70.2039794921875 -10.869805335998535,-70.2039794921875 C-10.869805335998535,-70.2039794921875 0.7379999756813049,-61.76100158691406 0.7379999756813049,-61.76100158691406z"/></g><g opacity="1" transform="matrix(1,0,0,1,0,0)"><path fill="rgb(255,11,11)" fill-opacity="1" d=" M-2.75600004196167,-85.38500213623047 C-2.75600004196167,-85.38500213623047 -7.418000221252441,-68.27300262451172 16.583999633789062,-50.59199905395508 C16.583999633789062,-50.59199905395508 11.131999969482422,-39.367000579833984 -13.605999946594238,-52.94499969482422 C-13.605999946594238,-52.94499969482422 -19.900999069213867,-57.59600067138672 -15.807999610900879,-78.08000183105469 C-15.807999610900879,-78.08000183105469 -15.355999946594238,-83.87100219726562 -2.75600004196167,-85.38500213623047z"/><path stroke-linecap="round" stroke-linejoin="round" fill-opacity="0" stroke="rgb(153,0,0)" stroke-opacity="1" stroke-width="9" d=" M-2.75600004196167,-85.38500213623047 C-2.75600004196167,-85.38500213623047 -7.418000221252441,-68.27300262451172 16.583999633789062,-50.59199905395508 C16.583999633789062,-50.59199905395508 11.131999969482422,-39.367000579833984 -13.605999946594238,-52.94499969482422 C-13.605999946594238,-52.94499969482422 -19.900999069213867,-57.59600067138672 -15.807999610900879,-78.08000183105469 C-15.807999610900879,-78.08000183105469 -15.355999946594238,-83.87100219726562 -2.75600004196167,-85.38500213623047z"/></g></g></g></g></g></svg>